/* XPM */
static char *b7a46174a4d74ddaa891579156c86117QKb5UMdXOyPNxecN[] = {
/* columns rows colors chars-per-pixel */
"64 64 247 2 ",
"   c #251503",
".  c #2C1402",
"X  c #2C1904",
"o  c #2C1B0B",
"O  c #28190A",
"+  c #311602",
"@  c #331B04",
"#  c #3B1D04",
"$  c #321D0D",
"%  c #3D1E09",
"&  c #281E18",
"*  c #331F11",
"=  c #2C0F00",
"-  c #2D200D",
";  c #3C2105",
":  c #33210C",
">  c #3D230B",
",  c #3B270A",
"<  c #2D2213",
"1  c #2D271B",
"2  c #332414",
"3  c #3C2B13",
"4  c #34261A",
"5  c #352A1C",
"6  c #3B2B1C",
"7  c #372717",
"8  c #3C351B",
"9  c #2E2B24",
"0  c #2E2D28",
"q  c #342C24",
"w  c #3A2D24",
"e  c #342A25",
"r  c #2C372A",
"t  c #3B3225",
"y  c #34342B",
"u  c #3C342B",
"i  c #333B2D",
"p  c #3A372C",
"a  c #353C33",
"s  c #3C3B33",
"d  c #3A3833",
"f  c #441F02",
"g  c #4A1F00",
"h  c #421E09",
"j  c #442204",
"k  c #4C2402",
"l  c #4E2A04",
"z  c #44250A",
"x  c #4A260A",
"c  c #452A0D",
"v  c #4C2B0B",
"b  c #472A06",
"n  c #512701",
"m  c #542B02",
"M  c #592E04",
"N  c #532D0A",
"B  c #5A2F09",
"V  c #4C300C",
"C  c #563004",
"Z  c #5A3106",
"A  c #54310B",
"S  c #5C340B",
"D  c #5E390D",
"F  c #432C12",
"G  c #4B2D12",
"H  c #422F19",
"J  c #512E12",
"K  c #4A3315",
"L  c #4C3319",
"P  c #493519",
"I  c #553313",
"U  c #5B3612",
"Y  c #5D3A13",
"T  c #53361A",
"R  c #55391C",
"E  c #5B3B1A",
"W  c #573917",
"Q  c #61360D",
"!  c #62380E",
"~  c #623B13",
"^  c #693E14",
"/  c #633E1B",
"(  c #653913",
")  c #423224",
"_  c #43352B",
"`  c #4A3C2D",
"'  c #463B2C",
"]  c #5B3E22",
"[  c #543D25",
"{  c #433C33",
"}  c #493C32",
"|  c #4B3E3A",
" . c #443A35",
".. c #402C23",
"X. c #603F20",
"o. c #2C412E",
"O. c #3C4335",
"+. c #3D443B",
"@. c #3C4B3B",
"#. c #364736",
"$. c #39533D",
"%. c #2D4633",
"&. c #6B4116",
"*. c #66421D",
"=. c #6B431A",
"-. c #6B441B",
";. c #74471D",
":. c #59442A",
">. c #4B4135",
",. c #44443A",
"<. c #4C453C",
"1. c #444A3E",
"2. c #4A4A3E",
"3. c #454435",
"4. c #544433",
"5. c #594733",
"6. c #5B4A34",
"7. c #534A3D",
"8. c #5A4C3C",
"9. c #534739",
"0. c #5E5236",
"q. c #464734",
"w. c #654423",
"e. c #6B4522",
"r. c #6C4925",
"t. c #6D4B2C",
"y. c #63482C",
"u. c #744B22",
"i. c #794D23",
"p. c #724E2B",
"a. c #644C33",
"s. c #714E32",
"d. c #65533A",
"f. c #775737",
"g. c #73512E",
"h. c #3D5742",
"j. c #3F4C42",
"k. c #3C6247",
"l. c #4C4641",
"z. c #444C41",
"x. c #4C4C43",
"c. c #474641",
"v. c #534C43",
"b. c #5A4E42",
"n. c #544E4A",
"m. c #554945",
"M. c #415343",
"N. c #4B5245",
"B. c #4D554B",
"V. c #4C5B4B",
"C. c #475A47",
"Z. c #535245",
"A. c #5C5244",
"S. c #55554B",
"D. c #5C544B",
"F. c #535B4C",
"G. c #5B5A4D",
"H. c #595A46",
"J. c #4C5D50",
"K. c #555C53",
"L. c #5B5C52",
"P. c #5C5853",
"I. c #61554B",
"U. c #645A4E",
"Y. c #695C4D",
"T. c #655745",
"R. c #635C53",
"E. c #6A5F51",
"W. c #615955",
"Q. c #735E47",
"!. c #4B624C",
"~. c #476649",
"^. c #53634D",
"/. c #4C6B53",
"(. c #4C6651",
"). c #546352",
"_. c #5B6354",
"`. c #526B53",
"'. c #566E5A",
"]. c #5C6C5B",
"[. c #5D6659",
"{. c #4D7558",
"}. c #527355",
"|. c #55745B",
" X c #5D745D",
".X c #547C5B",
"XX c #5A7B5C",
"oX c #6B634E",
"OX c #75634A",
"+X c #6B6352",
"@X c #65675A",
"#X c #73695B",
"$X c #61715E",
"%X c #5D7563",
"&X c #5B7C63",
"*X c #567D63",
"=X c #586E61",
"-X c #6A6D63",
";X c #637A64",
":X c #687767",
">X c #76756C",
",X c #76776B",
"<X c #697D72",
"1X c #7C7A73",
"2X c #777671",
"3X c #716A62",
"4X c #805F3E",
"5X c #817E77",
"6X c #56885D",
"7X c #4D925C",
"8X c #479059",
"9X c #51955E",
"0X c #51985E",
"qX c #4F8D62",
"wX c #568563",
"eX c #5B8464",
"rX c #548D64",
"tX c #5A8C65",
"yX c #5D856A",
"uX c #568D6A",
"iX c #5C8A6B",
"pX c #4E9261",
"aX c #539264",
"sX c #5B9264",
"dX c #5A9B66",
"fX c #599868",
"gX c #5F8B70",
"hX c #63846C",
"jX c #638A6D",
"kX c #66856A",
"lX c #629A6D",
"zX c #648C72",
"xX c #6B8B72",
"cX c #678674",
"vX c #738576",
"bX c #659373",
"nX c #6C9376",
"mX c #769279",
"MX c #5CA26A",
"NX c #64A06C",
"BX c #858679",
"VX c #91937E",
"CX c #8B8D82",
"ZX c #889689",
"AX c #899D91",
"SX c #939F95",
"DX c #8FA297",
/* pixels */
"cX&XyXzXiXjXjXjXyXjXyXyXjXiXyXiXyXhXhXkXcX<X:X-X[.L.K.K.L.K.K.K.B.B.B.B.P.[.@X@X-X-X:X<XcXcXcXhX<XcXgXiXiXyXiXtXeXiXiXtXhXhXhXcX",
"yX*XwXrXrXrXrXwXrXtXtXtXuXuXiXiXiXiXhX;X;X%X).V.x.z.z.x.x.z.z.j.1.z.1.O.,.x.S.L.[.[.[.].%X<XhXhXhXiXiXuXiXiXrXrXrXsXsXtXtXjXhXhX",
"iXrXaXaXrXaXaXaXpXpXaXaXrXrXaXrXtXwX&X&X|.`.C.#.1.x.x.N.N.x.x.z.,.1.1.,.s s O.,.x.z.1.M.!.|.&X&XeXeXrXrXrXuXaXaXaXdXdX9X9XsXiXiX",
"iXrXaXpX7XpX7X7XpX7XpXqXrXrXrX6X{./.`.|.`.).V.@.,.,.x.x.x.x.,.,.,.2.x.N.x.,.s y a i r r @.(.'.|.}..X.X6XrXrX6XdXdXMXMX0X7XrXrXtX",
"bXrXaX7X8X7X7X7XpXpXaXuXtXeX.X/.$.#.M.K.)._.F.,.{ ,.l.x.l.<.|  .,.,.2.x.v.<.{ p q 0 9 y 1.F.).).).(.}.XXeXtXtXlXMXMXMXaX7XqXrXiX",
"bXuXaX7X7X9X7X7XqXuXiXiXeX&X`.C.#.a O.x.P.L.S. .q u  .} }  ._ w p u { >.>. .u w w u u { S.L.L.K.F.V.!.`.;XhXeXnXdXdX9X9X7XrXuXiX",
"bXuXrX7X9XaX7X7XqXuXwX{./.(.V.C.N.1.,.2.x.v.>.w < < 4 4 6 4 2 2 o < 7 6 6 5 7 5 w w u >.D.L.G.P.L.)._.^.'.%X&XnXfXaX7X7X7XaXuXiX",
"bXuXrX9XdXdX7X7XqXrX{.k.h.C.V.)._.S.2.3.s s p 5 - O O O X       X     X X X O o 4 5 w >.S.G.S.S.F.).).1.$.M.~..XsX9X7X7X7XrXuXiX",
"bXrXaXaXlXdX9XsXrXwX~.$.h.J.K.F.L.G.S.<.u q 5 2   X X . . @ @ @ # ; @ @ @ @ X . . X 7 t ' 7.Z.v.H.S.F.1.#.o.%.~.6XrXaXaXaXqXrXuX",
"bXrXdXdXNXdX9XtXwX{.$.o.#.B.L.G.S.G.G.7.u 4 o   . X @ # ; z c c x c c c c F F > @ + X X 7 _ } } v.Z.N.O.r r o.h..XuXaXpXrXrXrXuX",
"bXaXMXlXlXlX9X6X{.h.o.r a c.G.R.W.R.I.>.6 o . . @ ; z b b N A A N A N v N A I v G > @ . . $ 4 w _ { >.s y y r o./.wXaXaXrXrXuXrX",
"bXaXMXdXsXsX6X}.h.#.o.a d d <.D.I.D.4.6 * X @ ; z x v l l m m m m m m m m A A m J v x % + = . o 2 5 u } <.x.z.+.$.{.wXuXrXrXuXuX",
"bXaXfXsX6X6X6X/.#.o.a O.y y _ } } _ 6 $ $ @ ; c v N N m m m m m m m m m m C C C N v v v # . . = O * w >.v.v.x.+.o.h.{.rXrXrXuXuX",
"bXrXaXrXtX6X6X`.@.#.i 0 9 u _ w 7 $ X @ > z x V N N m m m m m m M M m m m C C M C m l x z % @ .   X 6 } >.l.c.a i #.k..XtXrXiXuX",
"bXrXaXtXtX6X6X`.C.N.,.y 9 w ) 7 $ X @ > G G N m M N m m m m m m m m m n m Z C m C M m N v v z # . X 2 ) } m.v.s r i $.{.tXtXiXiX",
"jXrXaXtXtX6XXX`.^._.L.v.u 4 2 $ + . # c I J N m m n m m m m m m M m m m M Z Z M m m M N N N v h @ . . * ..9.v.p 0 r $.{.eXiXiXiX",
"zXrXqXsXeX.X`.^.F.L.G.n. .5 2 O = # x N A N M m m m m m m m M M N m m l m Z Z M m C m l m N N v ; @ . X 7 ) ) w 0 i $./.wXyXiXiX",
"zXuXrXtXjXXX`.^.F.G.S.m.} 6 o   + % v N B M M m m m m m m m m m m m m l m C C M M M m m m N N v c ; X X * * e  .x.N.!.}.&XeXiXiX",
"zXuXrXtXjX|.!.F.L.L.v.<.} 7 X . h j l N B M m m m m m m m m m m m m l l m C C m M M m m m M M m v z @ X X o w m.L._.`.'.XXhXjXiX",
"zXuXrXjXhX(.@.,.x.v.<.} ) $ @ # x k m M M B M M m m m m m m m M m m l l m C C m M m m m m m m m A v ; . . $ _ D.P.L.).!.`.eXkXeX",
"nXiXiXjX%X!.@.y 9 p w 4 * . + z v l m m B M M M m m m m m N M M m m m m m C C C M m m m m m m m m I z + . $ _ D.W.L.B.M.!.&XkXkX",
"nXgXiX&X`.).V.d p  .w 2 X . > J v l m M C M m m m m m m m m m m m m m m m C C C M m m m m m m m m N x % + + ) A.G.x.O.#.M.'.hXkX",
"xXiXwX`.!.).F.,.,.} w o   . z G v l m C C m m m m m m m m m m m m m m m m C C C m m m m m m m m m m v x # . 6 8.I.x.O.@.C.'.kXnX",
"xXeX{.`.).V.1.d { { w 2 X @ G J l l m C C M m m m m m m m m m m m m m m m M C C m m m m m m m m C m N v # . 7 4.D.<.O.z.C.`.&XnX",
"cXhX&X/.V.N.s y { t 5 o X > F G N l N M M m m m m m m m m m m m m m m m m m M M m m m m m m m m m m m l j + : ` 7.3.i #.C.!.%XxX",
"xXcXeX!.@.O.y 9 _ q <   . > G G l l l M M m m m n n n n m m m m m m m m m m M Z m m m l l l m m m m m l b + X 6 } { i #.@.C. XxX",
"kXhX X!.@.a 0 y { q O   : G G J N N A D D S M M M M M M C Z S S M M M M M M S S C C C M M C C C Z C m N x @ . $ w { O.i #.C. X&X",
"kX%X(.C.z.s d 2.<.u < - H T T I U U U ~ ~ Q Q Q Q Q Q Q Q Q ! ! Q Q Q Q Q Q ~ ( Q Q D D D D D D D S Z S A ; . $ ) { s i O.).;XhX",
"vX XC.1.+.s l.P.D. .1 7 H L G J J N N A S B B S Z M M M M C C C S S S S B S S S S S C C S S S Z Z Z C Z A j + X 6 t 3.N.V.).;X;X",
":X$XV.@.d s n.R.G. .1 7 3 > z x x x x l N m n M m m m m m m m m m m n n n n n n m m m m m m m m m m m N v ; . X 2 t 2.L._.). X$X",
":X].V.,.y d S.W.P. .4 7 : # z j z j j x N m n m m m m m m m m m m m m m m m m m m m l l m N m l l N l l v j @ X 2 _ Z.G.S._.:X:X",
",X[.N.,.0 u n.W.G.} 5 7 : ; x # j h j v N m n m m m m m m m m m m m m m m m m m m m m N m N m N N N l v I c @ X 7 _ v.G.N.N._._.",
"vX$X1.9 1 9 l.P.D. .7 7 3 c x v x G J I U ! ! Q Q Q Q Q Q Q Q Q ! ! ! ! ! Q Q ! ! Z Z S A U Y I A A N v G > . $ ) } >.>.{ x.@X-X",
"1X-X,.1 & & e u | u < 2 3 c v N X.t.s.t.p.p.i.i.i.i.i.i.i.i.i.i.i.i.;.;.;.i.i.i.u.u.u.e.e.t.g.g.r.E N b z @ . $ ` 8.7.u y Z.,X,X",
"-X@Xx.q 1 & e u  .u < o 3 c x N X.s.f.t.*.-.=.&.^ ^ &.&.&.&.&.&.&.&.&.&.&.&.&.&.=.=.e.e.e.r.f.f.r.E v j # @ . $ _ b.v.u p S.@X_.",
"L.@XG.{ e & e | 7._ < o F K v Y r.f.f.p.-.-.=.&.^ ^ ^ &.&.&.&.&.&.&.&.&.&.&.&.&.^ =.-.e.e.r.f.f.r.w.T v ; X . * ` b.v.| 2.L._._.",
"P.@XR.<. .e w >.A.` : @ c v N ! e.p.g.r.e.=.=.&.&.&.&.&.&.&.=.=.=.=.&.&.&.&.&.&.&.=.=.=.=.-.r.r.w.w.] L F , : 6 8.I.I.m.v.S._.-X",
"P.R.D.<.m.<._ } b.` : @ c l n S / -.-.-.-.=.^ ^ &.&.&.&.=.=.=.=.=.=.&.&.&.&.&.&.&.=.=.&.=.-.-.*.w.w.y.y.6.5.4.9.I.Y.I.m.v.x.F.].",
"@XP.v.>.m.D.| u ` ) : @ V I S ! / *.*./ *.=.^ ^ &.=.=.=.=.=.=.=.*.=.=.&.&.&.&.&.^ &.&.=.=.-.-.-.w.t.f.OXOXY.T.T.Y.I.D.m.Z.S.^.$X",
">XL.S.7.<.R.W._ t 5 o X , V N B U / / Y Y ~ ~ ~ ( ( ( ( ~ ~ ~ ~ ~ ~ ~ ~ ~ ( ( ( ~ / / ~ / / / / E w.f.Q.OXT.A.T.b.b.U.R.P.L._.;X",
",X,X@XZ.x.v.D.<.< O   @ c v N U Y Y Y E Y U U Y D D D D U U U U Y Y Y D Y Y D D ! D ! Y U U Y I I ] y.d.d.9.7.v.A.R.#X>X>X$X$X;X",
"-X,X-XH.Z.D.D.I.b.' 2 3 L T N N I U U U I I A U D D D D U U U U Y Y Y Y Y Y Y D ~ ~ Y U U Y Y Y W :.a.d.d.9.7.v.D.R.R.#X-X@X$X<X",
",X[.@X@XG.R.R.#X>X#X8.) F c A A I I W W W Y Y U ~ ~ ~ ~ ~ Y Y Y Y Y Y Y Y D D Y ~ ~ ~ Y Y E E E ] y.a.a.6.9.7.v.G.R.#X3X@XL.).:X",
"mX].^.F.Z.x.v.v.G.#X#XT.:.:.R v I T W W W E E Y Y Y Y ~ ~ ~ Y Y Y Y Y Y Y Y Y Y Y ~ Y U Y W W T T [ :.:.:.4.>.<.>.<.<.,.,.1.V.:X",
"vXkX_.N.Z.x.<.v.v.I.Y.Y.Q.OXf.:.T E ] R W E Y U U U D D D D U U U U U U D D U D U Y U U U Y W W W R [ :.:.4.' u u {  . .2.N.K.].",
"xX;X XV.N.x. .<.m.v.A.Y.Q.OXQ.a.:.a.a.w./ E Y Y ~ ~ ~ ~ ~ ~ ~ ~ Y Y Y ~ ~ ~ Y ~ / ~ ~ ~ E w.t.s.w.E T L P 3 - O w  . .u ,.N.).].",
"mXXX X`.N.1.,.x.<.v.I.Y.T.d.d.d.y.f.f.s.w.*.*.*.=.=.=.=.=.=.=.-.-.-.-.-.=.=.=.=.=.&.-.r.*.p.f.4Xt.w.R G c :   O t >.{ t y a M.).",
"cXkX|.!.@.i <.x.<.D.+XE.8.6.a.:.:.s.f.s.w.*.e.-.-.=.=.=.=.=.=.=.=.=.=.=.=.=.&.&.&./ ;.u.*.r.f.f.r.*.E I c ; . O t } _ q q i M.'.",
"kXhXXX~.r r s s  .v.E.#XY.5.:.[ [ y.t.w.w.w.*.-.=.&.&.=.=.=.&.&.-.=.=.-.-.=.=.-.&.&.&.&.-.e.w.w.*.*.~ A v ; . X 7 ) u u s +.J.%X",
"cXjXeX~.#.i y s  .>.v.U.I.8.:.H R :.w.w.w.w.*.=.=.=.=.=.=.=.=.=.-.&.&.=.=.&.&.&.=.=.=.=.-.-.e.r.-.-./ ~ I z @ X 6 4.7.<.,.O.J.;X",
"xXxXXX`.F.x.,.x.n.l.} <.b.8.4.H G T E E / / ~ ~ ^ ^ ^ ( ( ^ ^ ^ &.^ ^ &.&.^ ^ ^ ( ( ( ( ~ ~ / / / / Q D A j @ @ ) A.U.v.,.i j.=X",
"xXjXXX}.[.S.n.G.R.n.s p { >.[ H > z x v N A N M M Z Z C M M M Z M m m M M m m m C C A N N N N N C C M N l # @ @ 4.E.R.Z.,.r @.'.",
"zXhX|.`.F.v.n.W.W.n.s y t ) H F h z z x v v N m N m M M m m m m M N N m N m m m N N m l l l l l m m m m v > @ o 9.+X@XS.z.a j.%X",
"nXhXXX`.N.,.m.P.P.v.s q 5 6 H z h z x x x x v N N N A A N M m m N N N N N N N A A A N N A A A A m C M N N z @ : ` G._.K.N.#.M.;X",
"xXyX}.V.1.d d | D.<.p 1 7 3 G x v v N N J N N N v N l N m m M M m N N N N N N N N N N N N N M M N N m l x # @ $ ) 9.Z.Z.z.O.B.:X",
"nXzX|.).F.v.| m.| _ 1 < < 3 G x f j l l k j j j f f f f k n n m l k g g g g k l k k k k k k k k l n k k j # . . * w u s s i N.-X",
"xXzX*X`._.@XR.D.7. .5 o : F G v l m N S S S A m l k k k n m m m m l k l k k k N m m m n n n m m B N l v x # . . 7 ` >.>.x.N.K.].",
"hXhX&X(.V.S.G.R.D.7.' 7 : K K v l l N A A A C l N v l l N N N N N l l N l l N N N N N N l l N N N N v v v # @ $ ) A.G.L.@X[.).).",
"zXjX*X/.!.F.F.S.G.Z.3.< - , c c b b v V V V v b x x b b x v v I v x x x x x x v J J v v x x v v v v G G c @ X $ >.A.L._.[.).V.V.",
"zXyX{././.).).F.G.Z.q.8 8 P T T K K K P T T P K K K K G G L L T L L L L L G L L L L G G G G K L K K L P H 3 7 6 7.U.@X_.K.M.h.C.",
"nXjX*X{.(.(.).).F.2.q.7.0.d.d.6.0.0.0.d.d.d.d.0.6.6.6.6.5.5.5.6.6.6.6.6.6.6.6.6.5.5.5.5.5.5.5.6.6.6.6.6.6.9.9.7.v.N.x.z.M.@.h.(.",
"xXjX*X|.(.V.J.J.N.1.2.H.+X#XoXOXoXoX+X+X+X+X+X+X+X+XoXY.Y.E.E.E.Y.Y.Y.E.E.E.E.+X+X+XE.E.Y.E.E.+X+X+XoXoX+XoXR._.L.N.@.@.M.M.C.=X",
"vXcXyX<X;X:X:X:X-X_.S.S.H.H.H.H.G.G.G.G.U.G.G.G.x.2.<.<.<.<.x.x.v.S.D.D.D.G.G.G.D.D.D.D.D.D.D.G.G.G.H.H.S.S.N.x.x.1.1.C.].%X%X<X",
"DXAXAXAXAXAXAXDXSXZXCXBXBXBXBXVXCXCXCXCXCXCXCXCX1X1X>X>X2X2X2X>X>X2X2X1X2X1X1X1X1X1X1X1X1X1X5X5XBXBXBXBXBXBX1X1X>X:X<XvXZXAXZXDX"
};
