/* XPM */
static char *_af8724df0b645dde8dd42eff0ffac58xGK0VmOGACPeHsBt[] = {
/* columns rows colors chars-per-pixel */
"64 64 250 2 ",
"   c #527B57",
".  c #767C49",
"X  c #757E5B",
"o  c #7A7A5C",
"O  c #7D7856",
"+  c #6E7A51",
"@  c #587F63",
"#  c #4F7C67",
"$  c #657D65",
"%  c #777D62",
"&  c #AD3C19",
"*  c #BA382B",
"=  c #AB3F35",
"-  c #BD3B34",
";  c #B43C3A",
":  c #BC3A3C",
">  c #BA3937",
",  c #CD2E37",
"<  c #D42E34",
"1  c #DC2B34",
"2  c #DB2D3A",
"3  c #D72C38",
"4  c #CB3335",
"5  c #CB333A",
"6  c #C43937",
"7  c #D63539",
"8  c #C8382E",
"9  c #E12B34",
"0  c #E42D3A",
"q  c #E92B39",
"w  c #FB2D3E",
"e  c #F42C3C",
"r  c #E5333B",
"t  c #EC333C",
"y  c #E43B3C",
"u  c #E9383B",
"i  c #F3333D",
"p  c #FA323E",
"a  c #F1393E",
"s  c #DA1F30",
"d  c #9B4D15",
"f  c #9A5418",
"g  c #944E12",
"h  c #AC4D0C",
"j  c #A74909",
"k  c #B04E0D",
"l  c #AD510D",
"z  c #A1500F",
"x  c #B3520D",
"c  c #A44C12",
"v  c #AB4D13",
"b  c #AC4C1B",
"n  c #A9431C",
"m  c #B34C1D",
"M  c #B14717",
"N  c #A35114",
"B  c #AB5214",
"V  c #A4541C",
"C  c #AC531B",
"Z  c #A95B1D",
"A  c #B25213",
"S  c #B3531C",
"D  c #985923",
"F  c #994D3D",
"G  c #925229",
"H  c #AD4B21",
"J  c #AB4625",
"K  c #B34824",
"L  c #A55825",
"P  c #AC433C",
"I  c #A54639",
"U  c #BC4D33",
"Y  c #B24439",
"T  c #B45330",
"R  c #8B6228",
"E  c #97632A",
"W  c #8B6E37",
"Q  c #966A35",
"!  c #8B763C",
"~  c #99743A",
"^  c #A66635",
"/  c #A26933",
"(  c #C74D34",
")  c #D34439",
"_  c #C6543B",
"`  c #C94E35",
"'  c #E3423D",
"]  c #BA3D43",
"[  c #DD3D43",
"{  c #D72F40",
"}  c #FD2D42",
"|  c #F42F41",
" . c #EC3443",
".. c #E53B42",
"X. c #EB3B45",
"o. c #E63E4A",
"O. c #EA3847",
"+. c #F43342",
"@. c #FA3241",
"#. c #F33942",
"$. c #9D4D42",
"%. c #974E40",
"&. c #8B5A45",
"*. c #955443",
"=. c #945A4C",
"-. c #9B5649",
";. c #925E50",
":. c #A74742",
">. c #A55748",
",. c #BA544B",
"<. c #B54341",
"1. c #8A684D",
"2. c #92664C",
"3. c #867A46",
"4. c #997C49",
"5. c #8B6B53",
"6. c #886953",
"7. c #966755",
"8. c #83735A",
"9. c #837658",
"0. c #9D745A",
"q. c #AE7050",
"w. c #957D63",
"e. c #A07C66",
"r. c #C84947",
"t. c #D94747",
"y. c #DB5345",
"u. c #CB554D",
"i. c #EB444A",
"p. c #E84847",
"a. c #F34A4B",
"s. c #E7554B",
"d. c #E44A52",
"f. c #EB5D54",
"g. c #F15955",
"h. c #F4544F",
"j. c #D56755",
"k. c #EB6C5B",
"l. c #E86756",
"z. c #F3675A",
"x. c #EA755D",
"c. c #E1604A",
"v. c #EB5A62",
"b. c #D77364",
"n. c #CD756A",
"m. c #EC6A64",
"M. c #F56866",
"N. c #EC7366",
"B. c #F67967",
"V. c #F57B72",
"C. c #F87979",
"Z. c #F36C70",
"A. c #3F8255",
"S. c #3E9562",
"D. c #468C5C",
"F. c #4C8E5C",
"G. c #498659",
"H. c #5C8A54",
"J. c #538D5C",
"K. c #5C8D5C",
"L. c #598858",
"P. c #4D925D",
"I. c #4A945C",
"U. c #51925D",
"Y. c #58965B",
"T. c #67854E",
"R. c #648A55",
"E. c #64855B",
"W. c #6C845D",
"Q. c #6B8B5C",
"!. c #678957",
"~. c #72825D",
"^. c #788756",
"/. c #788D55",
"(. c #4D8E63",
"). c #4C8766",
"_. c #548564",
"`. c #5D8463",
"'. c #538D64",
"]. c #5B8B63",
"[. c #548E69",
"{. c #5B8C6B",
"}. c #5A8469",
"|. c #459463",
" X c #4D9263",
".X c #4D9369",
"XX c #489866",
"oX c #519066",
"OX c #529263",
"+X c #5A9464",
"@X c #549A63",
"#X c #5A9B65",
"$X c #539369",
"%X c #5B926B",
"&X c #5C9C6B",
"*X c #549A6A",
"=X c #5C8C70",
"-X c #5E9971",
";X c #658663",
":X c #6A8562",
">X c #628A63",
",X c #648969",
"<X c #768463",
"1X c #64986A",
"2X c #769968",
"3X c #639471",
"4X c #668E75",
"5X c #5DA26C",
"6X c #59A064",
"7X c #5EA070",
"8X c #62A36D",
"9X c #63A76A",
"0X c #67A874",
"qX c #77A477",
"wX c #59A05E",
"eX c #89854C",
"rX c #96834A",
"tX c #888658",
"yX c #978B59",
"uX c #8F945A",
"iX c #A5874D",
"pX c #A78958",
"aX c #A3955A",
"sX c #868866",
"dX c #899B65",
"fX c #979467",
"gX c #A78868",
"hX c #AA9366",
"jX c #91A26D",
"kX c #E8815E",
"lX c #F9886B",
"zX c #FC8A76",
"xX c #FC9D76",
"cX c #FE9B7B",
"vX c #FD9476",
"bX c #E88C69",
"nX c #FDA37B",
"mX c #F9A576",
"MX c #C78F71",
"NX c #789D86",
"BX c #76A285",
"VX c #79A286",
"CX c #7BA48A",
"ZX c #77A38A",
"AX c #84A686",
"SX c #B2A183",
"DX c #CB9180",
"FX c #F69C86",
"GX c #D6AA92",
"HX c #F1A185",
/* pixels */
"  _._.[.[.[.[.[.[.[.[.[.[.[.[.[.{._.{.{._.{.{.{._.{.{.{.].].{.{.].1XqX2X].K.].[.].].].].].].].].[.[.%X[.[.[._._.{.%X%XL.{.3X].,X",
"@ _.[.'.'.[.$XoXoXoXoXoXoXoXoXoXoX(.oXoX(.oX&X$X'.oXoXoX'.'.'. XU.#X0X8XU.@X&X&XJ.'.'.'.'.oXoXoX'.(.'.(.(.'.J.OX'.+X1XJ.'.[._.3X",
"_.'.oX X(. XoX.X X X X X X X X X.X X X XP.P.5X@XOX XP. X X X X XI.@X6X#XY.6X8X#XP.P. X X X X X X X X X(.F.P.U.@X#XU.8X#XJ.J.[.%X",
"_.'.$X X X X X X X X X X X X X X.X X(.@XP.U.8X#X#X@XU.U.U.OX X XU.U.U.Y.Y.1X#XU.J.J.'.'.OX(. X X X X X XF.P.U.#X0XY.5X#XU.OX+XOX",
"_._.oX X X X(. X X X X X X X X X.X.X(.@XP.U.8XY.9X#XU.P.U.P.P.P.U.F.F.J.U.U.J.J.'.'.'.[.oXoX X X X X X XF.U.U.@X0XU.@X@XP.OX$X'.",
"]._.OX'. XOXP. X X X X X X X X XXX.X|..XP.I.5XI.5X6XI.I.I.I.I.|. XP.I.P.F.D.F.OX X X X X X X XXX X X$XoXOXOXU.U.8XI.@XP.F.'.[.{.",
"].J.OXOX@X&X X X X X X X X X X X|.XX|. XI.I.@XI.6XI.I.I.I. X X XI.I.I.I.I.D.D. X X X|.|.XXXX|.|. X X$XoXoXOXU.U.5XI.@XP.P.'.[.{.",
"].J.@X@X&X&X XP. X X X X X X X XP. X X XP.P.U.P.@XP.I.P. XOXOX XP.P.U.U.U.P.F.F.I.I.I.|.|.|.|.|.|.|. X X XOXP.P.@XI.P.I.P.'.'.[.",
"K.J.+X#X&X5X X X X X X X X X X XP. XP.P. X X X XOXP.F. XOX X(. X'.'.'.'.'. X X X|. X|.|.XXXXXX|. X X XF.F.U.U.F.P.P.@X XOX'.[._.",
"].].1X&X&X&X X X X X X X X X X XF.F.U.OXOXOX X XD. X.X XF. X X X(.oX$XoX X X X*X X X X X X X X X X X XP.F.OXU.F.P.P. XP. X'.[._.",
"].+X1X&X&X#X X X X X X X X X X XU.OXOXOXOXoXOX$XoX$XOX X(.(. X(.(.oXoX(.(. X$X$XF.F.(. XOX'.'.'. X X X(.F.OXU.P.P.P. XP. X'.%X{.",
"].+X&X@XOXOX XOX X X X X X X X XOX X X X(.(.oXoX$X'.(.'.oX'.'.oX.X[.[.[.%X%X$X(.OXOXOX$X$X'.'.'. X XoX(.J.OXP.P.P.P. X X X'.%X%X",
"].'.@XOXU.OXOXOX X X X X X X X X|.|. X X X X X X[.%X$X'.'. XoXoXoXoXoX'.'.oXOXoX X(.F.(.(.(..X$X X XoX'.'.OXP. X X X X X X(.[.%X",
"_.[.OXOXOXOXOX X X X X X X X X XXXXX X X XOXJ.J.U.J.J.OX XP.P. XF.F.F.U.U.J.J.G.+X@XOXOXoX X X.X X XOX X'.oX'. X X X X X X(.[.%X",
"_.[.oXoX XoX X X X X X X X X X X X XF.G.Y.K.R.R.R.H.H.K.K.J.J.U.1XK.L.H.H.H.R.!.H.H.K.K.J. X X X X X X X XoX'.oXOX X X XoX'.%X%X",
"_.'.oX(.(. XOX X X X X XP.OXOXOXJ.OXJ.K.2X2X/./.tXdXdX2X!.!.R.R.T./.dXjXdX/.^././.!.R.L.J.U. X X X X X X XoX(.oX XF. X(. X(.[.{.",
").[..X X(. X XP. XP.P.P. XP.@XOX>XE.!.dXjXeX3.yXiXrX! eXeX^.. . tXyX3.! ! ! aXaXaXuXtX!.R.J.P. X X X(.oX'.F.OXOX XG.G.D. X(.[.{.",
").[.oX X(. X X X XOXF.OXU.@XJ.K.E.+ ^.uXrXW R R E E R R W rXaXyXpXiXQ E D D Q ~ W ! 3.. T.R.L.J.F. X X X X X$XF.(.A.A.G. X(.[.[.",
"_.'.OX X X.X.X X(. XU.F.J.H.R.Q.tXtXyX4.Q D D d d V L D D E / q.q.^ L V V d V L D E W 3.3.^./.R.K.L.J.OX X X.X.X.X).).D. XoXOX'.",
"_.OXOXoXoX[..X(.$X X#XU.H.Q.jXfXpXhXq./ D f d C B N V L L g g D L L N Z C c N V V D E ~ 4.pXaXfXuX^.R.K.'.(.(.[.$X$X$X(.OX XOX'.",
"].OXOX X.X.X).).(. XJ.K.T.tXyX4.^ q.^ f V N z B B B B Z Z c d d V V B B B c N N N d f D E ~ 4.iX4.eX^.R.L.OXoXoX[.$XoX X XF.+X+X",
"].'. X X X(.).G._.+XK.Q.tXrXQ D f f d N Z B N B v v A A v v c v c B A v h h v B B z d f f L / / Q ! eX/.R.J.OXOX[.[.J.P.P.F.1X1X",
"L._. XXX X(.G.G.L.E.Q.^.aX~ E D Z c c C Z B B A A h j h A A v j h A A k h h h k B B N N f f f f E E 4.eX^.T.L.E.>XK.U.U.Y.P.1XqX",
"@ _. XXXXX X_._.~.~.^.yXrXR f Z Z N c A A h h A h l l h h A A k l l l j j h k A A A B z N d g g f D Q W . tX^.~.L.L.K.6X6XJ.2XjX",
"@ '. XXX|.S.F.L.X tXpX4.R g d B B B B B B j j h k k h h A A h j h h l h j k x k k l h j j c c c B V D D ~ 4.tXtX. R.Y.wX9XY.1X2X",
"}._..XXXS.XXJ.W.tXgXpXQ D L C v B S B h h j j j A A k A A A h j j h l h h k A x k h h v v c c c j C L L ^ G 2.gXtXT.H.Y.9XY.K.E.",
";X{. XXX|. XK.<XgXMXq.L L H m m v S v j v h j h A A A A A B h h j j l l h l A l h k k A S S m b n m m H J G >.MXgXO T.H.I.I.J.>X",
"$ 3X XXX|. XQ.fXGXHXb.T T J J K b S b v b S C S C C b v v v v v c N B B B B A v h M M m m m m m M M M & * U j.bXq.1.^.H.G.D.F.1X",
"$ ,X X|.|.J.~.SXGXHXbXb.j.u.U J H n b H H H H H H H b b b b b H C C C C b b m b m m m m K K m K n & ( ` y.f.N.m.,.2.O R.U. XD.[.",
"$ _.oX XOX>XsXGXn.b.Z.C.C.V.b.u._ _ _ _ U T K J J J J n n n J H J n n n n n m M & M K K ( ( ( ( ` ` c.l.z.g.f.t.r.>.5.~.K. XD.$X",
"}._.oX'.>X<XgXDXu.u.d.v.Z.C.C.V.N.N.N.k.j.j.u.u._ U U U U U U U U U U U U ( ` ` ` ` _ y.s.f.f.l.z.z.f.s.a.i.o.o.r.,.7.sXQ.OX X$X",
"}.%X'.L.:Xo DXn.r.t.o.t.d.v.M.M.m.M.Z.B.V.V.V.V.N.N.N.N.x.k.k.l.l.l.l.l.l.k.k.l.z.z.l.f.f.g.g.g.a.p.p.y .. .O.O.t.,.7.sXW.[.$XoX",
"# [.[.].~.w.n.u.[ ..X.X.X.o.o.o.p.d.g.g.M.M.Z.Z.Z.M.m.m.M.M.z.z.z.g.z.z.f.f.g.h.h.p.i.i.i.i.X.#. . . .#.#.+. . .[ r.>.gX^.L.]._.",
").G.$X;Xo e.q.r... .+.+.+. .X.X. .X.X.o.i.i.d.d.d.d.d.d.d.a.p.p.p.p.p.p.p.p.' y i.u X. .u  .t +.+.+.+.+.+.+. . .[ r.>.gX^.E.>X].",
").G.[.;X8.0.,.t.t +.@.w w i +.+.| +. . .O.O.O.O.O.o.o.......p.p.p.7 y ..y y u u t t @.@.i @.} } } } } } @.+.+. .[ 6 >.0.O W.>X].",
")..X_.<X8.>.r.[ i p w w w p w } +.+. . .#.#. . .......p.p.s.s.f.g.h.a.p...i.y u t i p @.w } } } } } } } } +.+. .7 - I 2.O W.;XK.",
"# -X`.<X5.-.r...i p p p p i p p i #.t t +.i +.e t u y ' s.z.B.lXB.B.z.s.s.g.p.' u u i p w w } w } } } @.+.i t 0 4 - F &.9.~.E.].",
"_.{.E.o 5.>.r.[ +.p p p i i i p i @.i i p p @.i a ' ' s.l.B.vXcXcXvXlXB.x.lXz.z.s.' u i p w @.} } @.+.+.t 0 9 1 4 6 I &.9.<X;X>X",
"`.`.W.O 7.>.r...@.@.p i i t i i e i i p i #.a.i.7 s.l.B.lXvXxXxXnXnXxXbXkXlXN.B.z.s.y u i i +.i +.+.t 0 0 9 1 1 < - I &.8.<X;X>X",
";X;X:X8.7.:.t.X.@.} } i t t i i +.+.t i u a.M.M.l.N.zXcXnXnXnXnXnXnXxXbXkXlXx.lXzXz.' u #.t +.+.t 0 9 9 9 9 9 9 3 6 :.=.8.% ,X;X",
"].].:XsX0.$.6 o.@.@.@.+.+.+.+.@.@.+.t a r p.B.zXzXvXcXcXnXnXmXnXmXmXmXbXbXxXvXcXzXB.p.r y u 0 t 9 1 1 1 2 2 1 3 4 : :.&.8.% ,X,X",
"_.].>XsXw.-.<.5 r t t t  .+.+.@.w @.i #.a a.M.B.N.V.vXFXFXnXnXnXnXnXmXbXbXcXcXcXzXM.y r r r 0 9 1 1 1 < 3 3 < 5 : P $.6.% ;X{.{.",
"'. X+X2XsX5.>.; 4 4 2 r r t e } e @.i i a a.g.s.y.s.k.lXvXcXcXxXxXnXxXlXbXcXvXzXB.s.7 1 1 9 0 s 9 1 1 3 , 4 6 : P :.7.O ,X].[.[.",
"(. X X+X:XO 2.>.Y ; 6 5 3 2 q e t +.r r u u i.7 7 ) y.f.k.B.lXvXcXxXvXkXx.lXB.k.y.7 < 2 1 3 2 3 0 0 2 4 6 > = P $.=.8.W.%X.X.X$X",
"_. X XP.K.Q.9.2.*.F P ; > 5 3 0 2 r 2 2 r r t r r y y 7 ) y.k.B.lXlXB.k.l.s.y.8 4 < 3 2 2 2 2 { 2 7 5 > ; P $.-.1.5.X ].oX(..X$X",
"].oX XP.J.K.W.o 6.1.=.*.$.P : 6 5 5 , 3 2 2 2 0 9 0 2 < 8 4 ) y.) ) ) 8 8 8 4 4 < 3 3 , 3 3 , 5 6 : ; I $.-.2.5.o X >X'. X(.[.{.",
"`.[.oX(.P.OXK.E.~.X O O 1.&.$.:.P ; : : 6 6 5 5 , , 4 4 6 6 - - - * 8 * 6 * - - 6 6 : > : ] ; <.:.:.*.2.6.O X ~.:X>X'.(..X(.{.,X",
"`._.'.(. X XOXK.K.E.E.W.X 8.2.=.*.*.$.:.P <.<.: : : > ; ; Y Y I Y Y Y = Y = P P = = :.:.:.:.$.-.=.2.5.O X W.Q.E.].'. X|..X[.{.,X",
";X].'. X|. XoX X'.'.oX'.].W.X o 5.5.5.1.;.=.-.-.>.-.$.$.%.F F *.F F F %.*.*.*.-.=.=.=.7.7.5.5.5.9.o ~.W.].].'.K.'. X X|. X'.>X;X",
"@ _.oX X|..X X X'.'. XoX'.].;X:X~.~.X o O O 8.8.6.6.6.5.5.5.1.1.1.1.5.5.6.5.5.5.8.8.8.8.o X X W.W.E.>X].OX X XOXOXoX X|. X X[.>X",
"# '.$X X|. X X(.[.(. X X XOX'.].].].].].>X;X;X;X    + ~.~.X X X ~.X ~.~.~.W.~.W.:X:X:X>XK.].'. XOXOX X X X X XoX$XoX X|.XX|. X[.",
")..X.X X|..X X X'.(. X XXX X X X(.'.'.'.'.[.[.[.G.    L.E.E.Q.E.E.E.>X>X].].].].].].].'.'. X X|. X X X X X X XoXoX X X|.XX|. X+X",
").(. X|. X.X$X X X X X X X X X X'.'. X(. X X X XOXG.G.J.].+X].L.J.'.'.[.[.OX'.OXoXoXoXoX(. X X X X X X X X X XoX X X X X X X'.%X",
"[.oX X X XoX X X X X X X X X X X X X X X X X X XOXF.J.OXU.U.U.U.P. X X X X X X X X X X X X X(. X X X X XXXXX X XI. X XoXOX'.[.3X",
"[.%XOX X(. X XF. XP. X X X X X X X X X X X X X XF. XOXOXF.F.OX#XP.P. X X X X X X X X X X X X X X X X X X|.|.|. XI. XF.OX'.[._.{.",
"_.[.OXOX'.OX XP.U.P. XP. X X X X X(. X XOXOXOXOXOXOXF.F.U.+X#X1XU.OXU.OXOX'.F.F.OXOXOX X XoXOXOX X XOXOX X X X XP.OXF.'.'.OX_.[.",
"G.'.OXOXOXOXU.F.@XU.P.P. X X XF. X X X X X X X XOXP.OXOXF.#X0X8XOXOXP.P.P.P.P. XOX XOX#XOXP.P. X X X X X X XP.P.U.0XU.J.F.%X_.'.",
"G.'.OXOX'.OXU.P.#X@XU.P. XOX X X X X X X X X X XF.&X0X&XU.&X0X8XOXU.P.P.P.P.P.U.P.U.#X#XP.I.P.P. X X X X X X XP.OX0XOX&XJ.OX+X].",
"_.'.OXOX'.OXOX@X8X#XOXP. XOXoXoX X X X XOXOXOXOXF.U.#X&X#XOX@X@XU.P.U.U.P.P.P.OX@X#X5X5XOXP.P.P.F.F. X XP.P.P.P.U.8X@X0X'.J.%X_.",
"G._.OX X'.OX&X5X8X&X@X XF. X X X X X X X X X X XP.F.F.&X5XOXG.F.P.P.P.U.P.P.U.@X#X5X5X#XP.P.P.P.oX X X X X X X XP.#X@X0X+X_.[._.",
"_.'.oXoX$X%X&X0X8X&X*XOXoXoXoX$X X X X X X X X XOX XD.A.G.G.F.OXP.P.P.P.P.P.OXOX5X5X5X#XOXOXOXP.(.(.(.(.(. X X XF.F.oX&X[.[._.[.",
"_._.[.'._.[.%X-X%XOX'.(.).'.[.[.[.[.'.'.'.'.'.'.'.%X$X(.(.[.OXOXOXoXoXOX$X$X$X%X-X%X$XOX'.'.'.(.[.[.[.[.[.'.'.'.oX(.[.[.'.%X_.3X",
"=X=X{.{.{.{.3X3X{.{.{.{.{.{.=X=X{.{.{.{.{.{.{.{.]._.{.{.{.{.].].{.]._._.{.{.{.{.3X{.{.{.{.{.{.].{.{.{.{.{.{.{.{.{._.{.{._.{.}.=X",
"NXNXVXVXNXNXVXVXBXBXVXCXCXCXZXZXBXBXBXBXBXBXBXBXVXVXCXCXVXCXCXCXBXNXqXNXNXBXBXBXCXBXBXCXVXBXVXVXVXVXVXVXVXVXBXBXVXCXCXCXNXCXAXNX"
};
