/* XPM */
static char *_f758e5cf0ba46e2dffabcecf93061ceyCSeqyFlbPJyK1BY[] = {
/* columns rows colors chars-per-pixel */
"64 64 173 2 ",
"   c #3A7346",
".  c #3E7B44",
"X  c #3D734C",
"o  c #3E7B4F",
"O  c #3D6D5B",
"+  c #3D7553",
"@  c #3E7C53",
"#  c #3C735A",
"$  c #3E7E5B",
"%  c #3B7660",
"&  c #3E7A61",
"*  c #427D42",
"=  c #407A4A",
"-  c #427555",
";  c #427E54",
":  c #447C5A",
">  c #417662",
",  c #437A64",
"<  c #47756B",
"1  c #467B6B",
"2  c #3E834C",
"3  c #3D8154",
"4  c #42824D",
"5  c #438A4E",
"6  c #4F894F",
"7  c #558C44",
"8  c #4E954F",
"9  c #55924D",
"0  c #5E934A",
"q  c #5C9A4F",
"w  c #448455",
"e  c #4A8353",
"r  c #4A8C56",
"t  c #45835A",
"y  c #49865C",
"u  c #468A5B",
"i  c #4B8D5D",
"p  c #548C55",
"a  c #548E5A",
"s  c #4C9256",
"d  c #4D9853",
"f  c #47915D",
"g  c #4C925D",
"h  c #4D995C",
"j  c #539453",
"k  c #5C9553",
"l  c #579A53",
"z  c #5C9C57",
"x  c #52945D",
"c  c #5C955A",
"v  c #54995B",
"b  c #5C9B5C",
"n  c #61954B",
"m  c #629B4A",
"M  c #639757",
"N  c #619C56",
"B  c #60965C",
"V  c #629E5A",
"C  c #5EA15E",
"Z  c #6BB248",
"A  c #64A155",
"S  c #6DA355",
"D  c #65AA53",
"F  c #6BAC53",
"G  c #63A35D",
"H  c #6AA65C",
"J  c #67A95F",
"K  c #6BAA5D",
"L  c #73AF57",
"P  c #71A259",
"I  c #74AC5F",
"U  c #7BB453",
"Y  c #76B25A",
"T  c #438361",
"R  c #4B8763",
"E  c #468E64",
"W  c #4C8E62",
"Q  c #4B856A",
"!  c #4D8F6A",
"~  c #508F62",
"^  c #588A65",
"/  c #528E6A",
"(  c #469365",
")  c #4D9263",
"_  c #4E9963",
"`  c #4D926A",
"'  c #4F9968",
"]  c #539162",
"[  c #519363",
"{  c #519063",
"}  c #509463",
"|  c #509662",
" . c #529663",
".. c #529561",
"X. c #569463",
"o. c #509264",
"O. c #509167",
"+. c #529067",
"@. c #549366",
"#. c #539565",
"$. c #519464",
"%. c #5B9763",
"&. c #5D9767",
"*. c #519860",
"=. c #539862",
"-. c #559960",
";. c #569A61",
":. c #579A65",
">. c #559A63",
",. c #5B9A63",
"<. c #5D9D60",
"1. c #5F9C60",
"2. c #5D9F62",
"3. c #599967",
"4. c #5E9F65",
"5. c #5B9B63",
"6. c #529069",
"7. c #529369",
"8. c #50936A",
"9. c #519469",
"0. c #539768",
"q. c #51946B",
"w. c #51966A",
"e. c #519469",
"r. c #59966B",
"t. c #54996D",
"y. c #5C9C6C",
"u. c #4E8D70",
"i. c #4F8A74",
"p. c #4D8D75",
"a. c #4F8E73",
"s. c #4B9270",
"d. c #499072",
"f. c #4C9270",
"g. c #4D9472",
"h. c #4D9374",
"j. c #539273",
"k. c #619C66",
"l. c #619E62",
"z. c #5FA062",
"x. c #60A161",
"c. c #64A762",
"v. c #63A464",
"b. c #64A463",
"n. c #6AA762",
"m. c #6AA565",
"M. c #68A466",
"N. c #6BA663",
"B. c #64A962",
"V. c #6AAA60",
"C. c #6CA860",
"Z. c #68AB64",
"A. c #6BAA63",
"S. c #64A369",
"D. c #6AA96B",
"F. c #71AF62",
"G. c #71A864",
"H. c #76AD6A",
"J. c #487384",
"K. c #4A768F",
"L. c #486BAB",
"P. c #4B71AF",
"I. c #5274B3",
"U. c #527DB4",
"Y. c #517EB7",
"T. c #5378BE",
"R. c #5271C3",
"E. c #567BC1",
"W. c #5177CA",
"Q. c #5370D4",
"!. c #5178D7",
"~. c #518789",
"^. c #51838E",
/* pixels */
"Q +.*.g ) ` ) ) ) ) ) ) ) ) ) ) g 8.W g g ` ) ( g ` ) x ^.W.Y.i.s #.) i ) ` ) g ) ) ) ) ) ) ) ) ) ` ) g ) ` f ` g ` p.....U.!.~.",
"> R ) g ) ) ) g ) ) ) ) ) ) ) ) g ) W ) g ) ) ) g ` f.g x / ) 8 V x.;.) ) ) g ) ) ) ) ) ) ) ) ) ) ) ` g ) ` g ` ! g g x g i 8.x ",
", Q ) ` ` ) ) f ) ) ) ) ) ) ) ) ) g ) q.) } #.8.g ) ` ` ) g ) ` N F.A.*.) x v @.) ) ) ) ) ) ) ) ) ) ` g ) ! g W ) ) ) ` s.` 0.a.",
"Q ! ` ) ) ) ) g ) ) ) ) ) ) ) ) ) g ) q.) <.<...` g s ) ) ) ) ) b A.A j b c.;.W ) ) ) ) ) ) ) ) ) ) ` g ) W v ..F 3.) s ( ) g @ ",
"i ) ) g ) ) ) ` ) ) ) ) ) ) ) ) ` ) ) ) g G A c } ) ) ) g g g ) x k.M n S M.>.g ) ) ) ) ) ) ) ) g ) ) g ) ..G 5.K %.W ) ) } v @ ",
"r f g g ) ) ) ) ) ) ) ) ) ) ) ) ) ) ) ) x b.A V b } ` ` ) ` ! ` ) y a P P p w _ ) ) ) ) ) ) ) ) ) g ) g ) } J <.H z g ) ) ) / + ",
"g ) ` ) } ) ) ) ) ) ) ) ) ) ) ) f ) ` ) x 4.b n.<.x g ) ) ) ) g q.+.w . . r } ) ) ) ) ) ) ) ) ) } ) ` g ) x K b x ) ) ) ) ` +.w ",
") ) ) ) ) g ) ` ) ) ) ) ) ) ) ) s ) ` ) g ..i M.b v ) ` ) g g ) ) f ` g.s.) ) ) ) ) ) ) ) ) ) ) ) ) ` g ) ~ A.c ) ` g g ` ` i $ ",
"( ` W a A.z s ` ) ) ) ) ) ) ) ) ) ) ) ) ) ) ) ) ) ) ) ) ) ) ) ) ) ) ) ) ) ) ) ) ) ) ) ) ) ) ) ) ) ) ) ) ) ) ) ) ) #.) ) ` ` W t ",
"g ) x a K b s ) ) ) ) ) ) ) ) ) ) ) ) ) ) ) ) ) ) ) ) ) ) ) ) ) ) ) ) ) ) ) ) ) ) ) ) ) ) ) ) ) ) ) ) ) ) ) ) ) ) ) ) ` ` ) ) W ",
"u ..b.l.H b x q.) ) ) ) ) ) ) ) ) ) ) ) ) ) ) ) ) ) ) ) ) ) ) ) ) ) ) ) ) ) ) ) ) ) ) ) ) ) ) ) ) ) ) ) ) ) ) ) ) ) ) #.` ) q.+.",
"+...J V G y.g W ) ) ) ) ) ) ) ) ) ) ) ) ) ) ) ) ) ) ) ) ) ) ) ) ) ) ) ) ) ) ) ) ) ) ) ) ) ) ) ) ) ) ) ) ) ) ) ) ) ) ) #.) ) ) W ",
"W } B.v s ) W q.) ) ) ) ) ) ) ) ) ) ) ) ) ) ) ) ) ) ) ) ) ) ) ) ) ) ) ) ) ) ) ) ) ) ) ) ) ) ) ) ) ) ) ) ) ) ) ) ) ) ) ) ) ) ) w ",
") ) v g g ` ) ) ) ) ) ) ) ) ) ) ) ) ) ) ) ) ) ) ) ) ) ) ) ) ) ) ) ) ) ) ) ) ) ) ) ) ) ) ) ) ) ) ) ) ) ) ) ) ) ) ) ) ) ) ) ` ) @ ",
"u W } q.) ` ) ` ) ) ) ) ) ) ) ) ) ) ) ) ) ) ) ) ) ) ) ) ) ) ) ) ) ) ) ) ) ) ) ) ) ) ) ) ) ) ) ) ) ) ) ) ) ) ) ) ) ) ) ) ) ` ) @ ",
"i ) ) ! ) ) g ) ) ) ) ) ) ) ) ) ) ) ) ) ) ) ) ) ) ) ) ) ) ) ) ) ) ) ) ) ) ) ) ) ) ) ) ) ) ) ) ) ) ) ) ) ) ) ) ) #.) ) #.) ) ) ; ",
"u ) ) ) ) ) ) ) ) ) ) ) ) ) ) ) ) ) ) ) ) ) ) ) ) ) ) ) ) ) ) ) ) ) ) ) ) ) i ) ) ) ) ) ) ) ) ) ) ) ) ) ) ) ` ` W ) ) ` f g ) : ",
"u ) ) ) ) ) ) #.) ) ) ) ) ) ) ) ) ) ) ) ) ) ) ) ) ) ) ) ) ) ) ) ) ) ) ) ) u w y ) ) ) ) ) ) ) ) ) ) ) ) ) ) ) i ; t W ` g ` #.@ ",
"u ) ) ) ) ) ) ) ) ) ) ) ) ) ) ) ) ) ) ) ) ) ) ) ) ) ) ) ) ) ) ) g g g ) W t ; t ) ) ) ) ) ) ) ) ` ) ) ) ` ) i u i w i #.) W +...",
"i ) ) ) ) ) ) ) ) ) ) ) ) ) ) ) ) ) ) ) ) ) ) ) ) ) ) ) ) ) ) ) ) ) ) ) +.R y i ) ) ) ) ) ) ) ) ) ) ) ) ` ) ) i ; i r W ` ` ) ) ",
"W ) ) ` #.) W ) ) ) ) ) ) ) ) ) ) ) ) ) ) ) ) ) ) ) ) ) ) ) ) ) ) ) ) ) q.) ) ) ) ) ) ) ) ) ) ) ) ) ) ) ) ) ) ) W q.' ) W 8.q.g ",
") ) ) ) ) i t y ) ) ) ) ) ) ) ) ) ) ) ) ) ) ) ) ) ) ) ) ) ) ) ) } #.) W ) ` ) ) ) ) ) ) ) ) ) ) ) ) ) ) ) ) ) ` 8.u ) ` i x g 3 ",
") ) ) ) ) u w w ) ) ) ) ) ) ) ) ) ) ) ) ) ) ) ) ) ) ) ) ) ) ) ) b l.5.x g ) ) ) ) ) ) ) ) ) ) ) ) ) ) ) ) ) ) ) ) ) ) r j n.S.W ",
"i ) ) ` #.i t y ) ) ) ) ) ) ) ) ) ) ) ) ) ) ) ) ) ) ) ) ) ) ) ) A K n.b g ) ) ` ) ) ) ) ) ) ) ) ) ) ) ) ) ) ) ) g ` ) v K I c ) ",
"R W } g f ) ) ) ` ` ) W g ` E d ` ) g ) g c.b x g ) ) ) g ) ) ! V K A c &.A l x ) ) ) ) ) ) ) ) ) ) ) ) } ` ) ) g K b ^ F Z y.) ",
"R W ) #.#.) ) q.s g ) #.x ) ` W ) ) g #.g b.z c } ) ) ) ) ) ) ) ..b k 0 H A.5.W ) ) ) ) ) ) ) ) ) ) ) ) ) ) ) ) @.K L 7 q b j.s ",
"i ) i W ` q.) ) h W ..A.b i t.! g ) g +.x G N G 5.} ) ) ) ) ) ) ) y a S S p t ` ) ) ) ) ) ) ) ) ) ) ) ) ) ) ) ` a ; V I e R ! 2 ",
"u } #.W 8.+.g x W r.A.F z ..g ) g ) ) ) ..<.z A.<.} ) ) ) ) ) ) g ! y * * y ` g ) ) ) ) ) ) ) ) ) ) ` ` ` ) ) } g / t * ~ +.) ; ",
"W ) ) +.+.r v D.b a S Y b ) g g g ` ` ) ) } v z.5.x ) ) ` ) ) ) x ) W ) ` q.q.g ) ) ) ) ) ) ) ) ) ) ` ` ` ) ) g ( g ) ) v r W 1 ",
"8.) i W ) f v b.U 7 c l.x ` ) ) g ) ` ) ) ) g x } g W ) ` ) ) ) W ) ' ` ( g ) W ) ) ) ) ) ) ) ) g g ) ) ) ) ) g ) ` E ) E >., L.",
") #.) ) ` #.r 4 m H.e y } u t.s g W ` g g ) ) ) ) ) ) ) ) g ) ) ` ) g ) ) ) ) ` ) ) ) ) ) ) ) ) ..x g ) ) ) ` ) ) W ` ) h.u ; I.",
"u i ) ) ) ` ` ) :   i g s q.W G <.+.8.g g ) ` ) ) ) ) ) g g ) ) ( ) i ~ @.+.W ) ) ) ) ) ) ) ) ` x.3.} g ) ) ) ) / F z q.i #.i ; ",
"Q +.g ) ` ) #.W ) ) ) ` ) g g x v.5.x ) ) ) ) ) ) ) ) ) ) ) ) ) ) ) ) ) ) ) ) ) ` ) ) ) ) g 5.S.V b.5.) ) ) g j 9 M.b g ) ` W 3 ",
"> W ) ) ) i g ) ) ) ) ) ) ) >.y.5.x g ) ` ) ) ) ) #.` ) ) ) ) ) ) ) ) ) ) ) ) ) ) ) ) ` ) g x ..l.5.g ) ) i j M.b D.5.g ) ) q./ ",
", R ) ` ` g g ) ) ) ) ) ) ) ) *.g g ) ) ` ` ) ) ) ) ) ) ) ) ) ) ) ) ) ) ) ) ) ) g ) ) ) ) ) g g } ) ) ` q.i c C.<.z...} ) ) q.W ",
"Q W ) ` ) ) ) ) ) ) ) ` ) ) i r g ) ) ` ) ) ) ) ) ) ) ) ) ) ) ) ) ) ) ) ) ) ) ) ) ) ) ) ) ` ) ) ) ` ) ) ) g x x.*.x i ) ` ) ) ; ",
"R ) ) ` u g g ` ) ) ) ) ) ) ) } ) ) ` ) ) ) ) ) ` ) ) ) ) ) ) ) ) ) ) ) ) ) ) ) ) #.) ) ) ` q.) ) #.) ) ) ) ) x ) ) g ( ) ` +.o ",
"i g g ` i ;.x ` ) ) ) ) ) ) #.#.) ` ` ) ) ) ) ) i t u i ) ) ) ) ) ) ) ) ) ) ) ) ) ) ) ) ) ) ) ) ~ ) ) ) ` ) ) f ) ` ) ` ) ) 8.@ ",
") g g ` x M.b i ) ) ) ) ) ) ) W ) ) ) ) ) ) ) ) y w w i W ) ) ) ) ) ) ) ) ) ) ) ) ` ) ) ) ) ) ) #.) i W ) ) ) ` W ) ) #.) ) ) @ ",
") ` ) #.g B.b x ) ` ) ) ) #.+.) ) ) ) ) ) ` ) W a y y W ) ) ) ) ) ) ) ) ) ) ) ) ( ) ) ) ) ) ) ` W ) ) ) ) 8.+.i #.+.i ) ) ) ) ; ",
"` g i F b K 3.x ) ) ) ) ) ) ) ) ) ) ) ) ) ) ) ) ) ) g ) ) ) ) g g ) ) ) ` ) ..x q b.b g #.` ) ) ) ) ) ) ) ) ) ) ) ` ) ) ` ) W w ",
"` g ..K <.G >.g ) ) ) ) ) ) ) ) ) ) ) ) ) ) ) ) W ) ` ` ) ) ) ) #.) ) ) ) ) 5.x.V M.5.g ) ) ) ) ) ) ) ) ) ) ) ) ) ) ) ` ` ) ) W ",
"E f 8.G :.l #.f ) ) ) ) ) ) ) ) ) ) ) ) ) ) ) ) ) ) ` ` +.) ) ` ` ) ) ` ) g b A.l.k...) ) ) ) ) ) ) ) ) ) ) ) ) ) ) ) #.` ) q.+.",
") g ) x ) s ` g ) ) ) ) ) ) ) ) ) ) ) ) ) ) ) ) ) ) ) ) ) ) ) ` ) ) ) ` ) g x z.x ..) ) ) ) ) ) ) ) ) ) ) ) ) ) ) ) ) #.) ) ) W ",
") ) ) ) ` i q.) ) ) ) ) ) ) ) ) ) ) ) ) ) ) ) ) ) ) g g v v g ) ) ) ) ) ) ) ) x g i ) ` ) ) ) ) ) ) ) ) ) ) ) ) ) ) ) ) ) ) ) w ",
"g ) ) ) ) ) ) ) ) ) ) ) ) ) ) ) ) ) ) ) ) ) ) ) g g ) ;.<.b v } ) ) ) ) ) ` ) W ` ) ) ) ) ) ) ) ) ) ) ) ) ) ) ) ) ) ) ) ) ` ) @ ",
"u ) ) ) ) ) ) ) ) ) ) ) ) ) ) ) ) ) ) ) ) ) ) ) ) ) ) ;.x.b.<.#.) ) ) ) ) ) ) ) ` ) ` ) ) ` ) ) ) ) ) ) ) ) ) ) ) ) ) ) ) ` ) @ ",
"u q.) ` g ` ) #.) ) ) ) ) ) ) ) ) ) ) ) ) ) ) ) ` ) W x b V v g ) ) g ) ) ) ) g ) ) ` ) ) #.W ) ) ) ) ) ) ) ) ) #.) ) #.) ) ) ; ",
"i ) ) ) ) ) ) ) ) ) ) ) ) ) ) ) ) ) ) ) ) ) ) ) W W ) ) ) ) ) ) ) ) ) ) ) ) ) ) ) ) ) ) ) ) ) ) ) W ) #.) ) ` ` ) ) ) ( ) #.W @ ",
"u ) ) ) ` ) ) ) ) ) ) ) ) ) ) ) ) ) ) ) ) ) ) W y t i ) ) ) #.) ) ) ) ) ) ) ) ) ) ) ) ) ) ) ) ) ` ) ) ) ) ) ) ) #.` ` ` ) ) i w ",
"u ) ) ) ` ) ) ) ) ) ) ) ) ) ) ) ) ) ) ) ) ) W i w w i ) ) ) +.) ) ) ) ) ) ) ) ) ) ) ) ) ) ) ) ) ` ) ) ) ) ) ) ) ) i ) ) ) ) +.) ",
"i ) ) ) ) ) ) ) ) ) ) ) ) ) ) ) ) ) ) ) ) ) ) W i i W ) ) ) ) ) ) ) ) ) ) ) ) ) ) ) ) ) ) ) ) ) ) ) ) ) ) ` ` ) #.) ) ) W ) ) ) ",
") #.) ) ) ) ) ) ) ) ) ) ) ) ) ) ) ) ) ) ) ) ) ) W W ` ` ) g ) ) ) ) ) ) ) ) ) ) ) ) ) ) ) ) ) ) ) ) ) ) ` ) ) ) ) ) ) ) ) ` #.i ",
") #.) ) ) ) ) ) ) ) ) ) ) ) ) ) ) ) ) ) ) ) ) ` ) ) ` ) g g } ) ) ) ) ) ) ) ) ) ) ) ) ) ) ) ) ) ) ) ) ) ) ) i g ) ) ` ) ) ) W w ",
"i ) ) ) ) ) ) ) ) ) ) ) ) ) ) ) ) ) ) ) ) ) ) ) g ) ) ) v C z.j ) ) ) ) ) ) ) ) ) ) ) ) ) ) ) ) ) ) ) ) ) i g 5.g g ) ` ) #.#.i ",
"i ) ) ) ` ` ) ) ) ) ) ) ) ) ) ) ) ) ) ) ) ) ) ) g ) ) x z A.H k ) ) ) ) ) ) ) ) ) ) ) ) ) ) ) ) ) ) ) ) ) g x S.>.) ) ` ) ) ) ) ",
"5 ` ) ` g q.` g H b +.` ) g g ) ) ) ) ) ) ) ) g g x.G c B A.B.x ` g W ` g g ) ) b S...) ) ) _ g ) g g ) ` ) j K ;.+.! f s g ) ..",
"r 8.) v ) ) s i H b ..8.` ) ) ) ) ) ) ) ) ) ) ) i D.C.0 n N j g ) v } W f g #...k b.b ..) W ) W ) ) ) ) ` +.x G 5.D 3.+.` f.) W ",
"Q a.` g ) } D y.K b x ) ) ) ) ` ) ) ) ) ) ) ) ) ..4 c G.k 6 ..i ` ) ` ` ` ) :.V V M.5.} ) ) ` ) ) ) g i ) ) i x ] F 3.) g ) ) t ",
"r x ) s ) x F &.G b } ` ) ) ) ) ) ) ) ) #.#.` ) r 8.y = e / ! ) v ) ) h g ! r.S G x.x g ) ) ` ) ` #.} g ` ) ) ..W #.W ) f g ) . ",
"i s ) ` ` ) G 5.x g ) ` ) ) ) i ) ) ) ) ) ) ) ) *.) W ) ) ` ` g ) ` ` f f ` &.H x } g ) ` ) g f ) ) g g ( ) ) ) ` E ( ` ` q.W : ",
"@.i ) q.` r } g ) ) ) ) ) ) } g ) #.) ) g g ) ` ) ` ) s g g ) ` ` ! W ) ` g s i ) ) ) ` ` ) ) } ) +.) ) ) ( ` ) g f ) g ) i t P.",
"R Q r a x x ! ) q.W ) #.) W W W W W W +.#.+.) W W +.g r g x ) ` e : : r ~ g g ` q.) ) ) ) ) W W W / W W +.#.#.W W x / i x x / T.",
"E.Q.J.O # i R ) W w w W W t + + + + + t W W t + - X + # , W y + K.R.I.< + & E g ) u w i W W : + + - + - t W i ; O - X # % T @.- "
};
