/* XPM */
static char *e93b6255931649499296f9987d19f17eCCi4fZzPzxpx5bwG[] = {
/* columns rows colors chars-per-pixel */
"64 64 240 2 ",
"   c #03010D",
".  c #070411",
"X  c #080612",
"o  c #0B0A16",
"O  c #110F1B",
"+  c #0B1B17",
"@  c #13131E",
"#  c #0C2519",
"$  c #142B1E",
"%  c #12331D",
"&  c #0E3218",
"*  c #1C1A26",
"=  c #1A1926",
"-  c #1F1A31",
";  c #271E33",
":  c #201C2A",
">  c #152B22",
",  c #1C242A",
"<  c #1C2C2B",
"1  c #192626",
"2  c #163125",
"3  c #1D342C",
"4  c #1D3B2A",
"5  c #183825",
"6  c #1D3A30",
"7  c #1F2A30",
"8  c #23242D",
"9  c #242C2D",
"0  c #21352C",
"q  c #233C2D",
"w  c #2B3A2E",
"e  c #262334",
"r  c #2A2535",
"t  c #2B2B34",
"y  c #2B263A",
"u  c #2C2B3C",
"i  c #252736",
"p  c #312D3D",
"a  c #362739",
"s  c #233533",
"d  c #243B33",
"f  c #2A3C35",
"g  c #2D3C3A",
"h  c #2B3638",
"j  c #33323C",
"k  c #353A38",
"l  c #462F3D",
"z  c #1B442B",
"x  c #1F4530",
"c  c #24412D",
"v  c #254333",
"b  c #2B4235",
"n  c #2C433C",
"m  c #2D4B3B",
"M  c #284936",
"N  c #32423B",
"B  c #3C423E",
"V  c #344839",
"C  c #2A5539",
"Z  c #35543D",
"A  c #2F663E",
"S  c #2F2F42",
"D  c #362D42",
"F  c #2D3841",
"G  c #353344",
"H  c #3A3444",
"J  c #343D42",
"K  c #3A3B44",
"L  c #3D3B4B",
"P  c #38384A",
"I  c #3F3D51",
"U  c #432D43",
"Y  c #433344",
"T  c #4B3B44",
"R  c #433B4D",
"E  c #4B3C4D",
"W  c #493646",
"Q  c #543E4E",
"!  c #433E52",
"~  c #4C3E51",
"^  c #573F51",
"/  c #2E4741",
"(  c #344442",
")  c #3B4444",
"_  c #344A44",
"`  c #3B4B45",
"'  c #3C454A",
"]  c #3C4C4B",
"[  c #364449",
"{  c #335342",
"}  c #3C5B4A",
"|  c #395648",
" . c #3E4850",
".. c #2E5341",
"X. c #3D624B",
"o. c #3A6548",
"O. c #444444",
"+. c #44434C",
"@. c #4B434D",
"#. c #424B4D",
"$. c #4A4C4C",
"%. c #474846",
"&. c #53474C",
"*. c #41514D",
"=. c #445A4E",
"-. c #454353",
";. c #4B4454",
":. c #454B53",
">. c #4B4A55",
",. c #464559",
"<. c #4B465A",
"1. c #464A5A",
"2. c #4D4A5C",
"3. c #524455",
"4. c #534A56",
"5. c #52465B",
"6. c #514B5D",
"7. c #5B4C5C",
"8. c #5A4955",
"9. c #455253",
"0. c #4A5353",
"q. c #4B515B",
"w. c #485958",
"e. c #53525D",
"r. c #585257",
"t. c #63495A",
"y. c #67555E",
"u. c #60424E",
"i. c #42664E",
"p. c #41714D",
"a. c #456C52",
"s. c #4C6C5B",
"d. c #476755",
"f. c #53645D",
"g. c #4C745B",
"h. c #4D7A5C",
"j. c #487255",
"k. c #51755D",
"l. c #527B5C",
"z. c #4E4A60",
"x. c #4E4761",
"c. c #514C61",
"v. c #574A60",
"b. c #545263",
"n. c #5B5466",
"m. c #695967",
"M. c #755967",
"N. c #635B70",
"B. c #556963",
"V. c #527463",
"C. c #537C63",
"Z. c #5A7D66",
"A. c #5C7E6A",
"S. c #597768",
"D. c #4E7560",
"F. c #65646D",
"G. c #68686C",
"H. c #6C6A75",
"J. c #6C6875",
"K. c #796577",
"L. c #677B74",
"P. c #686F6A",
"I. c #856B78",
"U. c #8C727F",
"Y. c #4D8C5E",
"T. c #4C845C",
"R. c #538B5E",
"E. c #5C845F",
"W. c #4B925D",
"Q. c #50955F",
"!. c #4E8C62",
"~. c #4E8562",
"^. c #548464",
"/. c #5A8566",
"(. c #538C65",
"). c #5A8B65",
"_. c #568268",
"`. c #5C856B",
"'. c #558C69",
"]. c #5B8B6B",
"[. c #4D9263",
"{. c #4F9068",
"}. c #539265",
"|. c #5B9266",
" X c #54926A",
".X c #5B936C",
"XX c #589B67",
"oX c #5E8C70",
"OX c #5E8572",
"+X c #5D9271",
"@X c #61846C",
"#X c #618A6D",
"$X c #618B65",
"%X c #64926D",
"&X c #66976C",
"*X c #648572",
"=X c #638C72",
"-X c #698A73",
";X c #6A8876",
":X c #639373",
">X c #6B947B",
",X c #699876",
"<X c #729A79",
"1X c #758D7D",
"2X c #61A06D",
"3X c #6BA375",
"4X c #72A47B",
"5X c #877688",
"6X c #997B89",
"7X c #866C80",
"8X c #A37E8F",
"9X c #6E9A82",
"0X c #749D82",
"qX c #7A9A86",
"wX c #768A84",
"eX c #78A287",
"rX c #9A8A9B",
"tX c #8C828B",
"yX c #A88897",
"uX c #81A58D",
"iX c #9B8DA2",
"pX c #AC98A7",
"aX c #B799A8",
"sX c #B89EB3",
"dX c #BAA2B2",
"fX c #C6A9B8",
"gX c #D1ACBD",
"hX c #CBB1BE",
"jX c #BDB1C4",
"kX c #D2B3C3",
"lX c #DDB4C4",
"zX c #DCB8C8",
"xX c #CFB1C5",
"cX c #E2B3C4",
"vX c #E3BACB",
"bX c #EBBCCD",
"nX c #E3B7C7",
"mX c #ECBED2",
"MX c #E4C1CE",
"NX c #E8C3D3",
/* pixels */
"uXZ.`.].`.`.*X*XL.f.) 8 9 , r j +.+.0.f.S.L.;X*X#X#X#X`.`.#X#X@X@X#X<X<X$XE.)./.$X#X@X`.@X;X;XL.P.f.r.0.0.$.B ` f.S.;X*X@X-X`.#X",
">Xk._.].].].#X@XS.N k O.+.@.+.j t j h f _ =.S.-X`./.`.=X`.`.].`.#X%X<X<X&X$X).)./.]._.=X*XS.s.=.( h k k t 9 9 0 f *.;X;X@X#X/./.",
">X^.].'.'.].#X/.s.N O.$.+.R @.8.4.@.' ( f d | V.=X#X`.`.`.].oX`.).#X,X<X&X%X&X&X].].`.=XS.{ v 0 k k B B O.0.0.` w b A.-X#X#X].).",
">X'.'.(.(.]./.C.=.f O.j j a l T &.4.+.#.0.( 3 d X.A.*XZ.Z.C.C.C.k.l././././.=X>X`.OX/.X.v 3 f *.' %.$.&.O.k ) %.` b i.=X#X).).).",
">X).(.}.[..X^.h.Z f O.@.aXaXI.u.l T &.>.$.q.#.s 0 | d.=.| m v v q 4 4 4 4 v Z | d.s.} 2 < *.0.#.>.@.T T l Y O.k #.N v ].%X).^.|.",
"eX].(.}.Y..X).k.{ f $.t.fXNXMXfXyXy.W E @.@.>.#.h < 1 1 1 0 f f g N ( ( ( g d s 3 < < k :.;.@.@.T T 8.I.yXkXfXM.O.#.q `.].).^..X",
"eX].!.[.Y..X).h.V k &.M.gXvXnXnXvXfXI.Q E E +.>.:.[ ' :.:.:.:.:.>.>.>.:.>.:.:.:.#.#.' -.e.4.;.E Q I.aXlXlXzXhXU.%.$.q h.^.).^.].",
"eX.X}.}.Y.,X].h.V k r.yXvXmXlXcXzXzXpXm.Y E e.>.2.2.:.2.q.2.:.:.;.:.;.;.:.:.:.:.2.2.b.>.;.R H ;.rXkXMXbXbXNXzXyX&.%.q j.).]./.].",
"0X).|.XXXX3X).l.V k y.yXlXvXbXmXcXkXK.a H ;.5.;.;.;.>.>.>.>.2.6.6.6.6.6.6.6.2.2.2.>.;.;.5.E a 5.6XkXnXcXcXnXnXaXm.%.b j./.%X].].",
"<X).|.XXXX3X).l.b k 8.6XlXcXcXnXzXfXI.E E 3.3.6.6.6.6.6.;.;.;.;.<.<.<.<.<.<.<.<.>.-.4.6.5.;.W E ^ aXvXvXbXbXgXaXr.B q h.].].).].",
"<X).|.2XXX2X).l.Z k &.U.lXnXnXnXfXI.3.Y ;.5.;.c.;.<.<.5.5.6.6.v.6.6.c.c.c.c.c.c.2.,.6.6.;.5.3.~ t.fXlXcXbXmXkX6Xy.%.q k.].).].].",
"4X).|.2XXXXX(.T.Z w %.M.fXMXlXaXM.W ;.6.;.6.6.-.6.c.c.5.5.5.5.5.2.2.2.2.2.2.2.2.z.z.6.<.5.7.5.3.W m.yXlXlXvXgX6X&.) 4 ^..X(.].].",
"0X)..XXXW.Q.R.T.X.q %.y.pXkXyXM.W 8.6.;.>.6.>.z.z.2.2.z.z.c.c.c.z.z.z.z.z.z.z.z.2.c.z.<.v.6.3.3.7.^ t.8XfXzXhXI.$.N c ^..X(..X'.",
"<X].|.}.W.W.Y.Y.a.c B r.tXtXy.W &.3.>.2.>.>.6.,.2.2.2.2.z.z.z.z.z.z.z.z.z.2.z.2.z.2.2.6.c.6.>.<.E 3.Q Q I.dXpXG.$.f Z ^.(.~..X'.",
">X].}.W.W.W.[.(.h.v g 4.m.7.W 3.4.6.>.q.2.,.2.z.2.2.2.2.z.z.z.z.z.z.z.z.z.z.2.2.z.2.2.2.2.2.2.>.<.3.E E W m.5Xr.N $ a.(. X'. X!.",
">X].(.Y.[.W.}.}.^.Z g >.@.@.4.6.;.>.2.1.1.2.2.2.2.2.2.2.2.2.2.2.2.2.2.z.z.z.2.2.>.2.2.2.2.2.2.2.2.3.5.7.3.R @.$.B $ C. X}. X X'.",
">X].(.(.}.[.!.{._.g.s ' :.>.e.;.;.>.2.2.2.>.>.2.2.z.2.2.2.2.2.2.2.2.2.2.2.2.2.2.>.>.>.>.>.2.2.2.c.<.>.6.6.;.@.+.d { _.).~.(..X(.",
">X].).}.}.}.!.'.oXV.d :.,.2.6.>.2.2.2.2.2.2.2.2.2.2.2.2.>.>.>.>.2.2.2.2.2.2.>.>.6.6.6.6.6.6.6.6.c.c.>.;.6.>.@.' 3 s.C.T.(.}.(.).",
">X`.(.}.(.!.(.'.`.V.s :.,.e.2.2.2.2.2.2.2.6.2.2.2.2.2.2.2.>.>.>.>.>.>.6.6.6.6.6.6.6.6.6.x.5.x.c.c.b.2.,.c.>.,.J 3 V.l.T.R.(.(.).",
"0X`.(.}.[.(.(.'.A.d.h  .1.2.>.z.2.2.c.c.2.2.z.c.2.2.2.2.2.2.2.2.>.>.>.>.6.6.6.6.6.6.6.6.x.x.c.c.c.2.2.z.z.>.q.J 3 s.^.^.}.R.R.|.",
"eX].'. X[.}.'.^.C.| (  .2.2.2.c.2.z.c.z.2.2.2.c.z.z.z.z.z.z.z.z.2.2.2.2.2.2.2.2.2.2.2.2.2.z.z.z.2.<.2.c.z.<.q.[ 3 } `.^.&XR.R.%X",
"eXoX'.}.[.(.~.h.s.n ' -.z.2.c.c.z.z.2.2.2.2.z.2.z.z.z.z.z.z.z.z.2.2.2.2.z.z.z.2.2.2.2.2.2.2.z.z.2.z.2.2.c.,.1.:.3 v `.).|.R.|.|.",
"9X].'.[.!.(.T.j.X.d ] ,.2.2.z.c.z.z.2.2.2.2.z.2.z.z.z.z.z.2.2.2.2.2.z.z.2.z.2.2.2.2.2.2.2.>.>.2.2.c.2.<.c.<.,.:.n > k.%XR.).3X&X",
"9X].'.}.}.'.^.k.} d :.q.,.2.2.x.2.2.2.2.>.<.2.2.2.2.2.2.2.2.2.2.2.2.2.2.2.2.2.2.5.5.5.2.>.>.6.6.2.2.z.<.z.2.2.:.( > i.%X).|.3X4X",
">X].'.}.}..X].h.{ f :.b.<.z.<.2.>.>.>.;.L G L ;.>.>.6.2.2.c.<.2.z.z.2.2.2.>.>.>.>.6.,.L G K +.>.e.-.2.n.x.2.q. .` b v :X,X|.,X4X",
">X].(..X!.(.:Xi.v ( :.6.2.<.2.z.>.;.K r = @ * p -.<.2.>.>.2.2.c.2.2.z.z.2.2.2.2.>.-.y * O = r +.2.;.2.c.2.<.2.:.*.N 4 _.4X&X).).",
">X`.'..X~.].^.X.2 ] :.2.c.<.z.2.>.-.r o     . * L ;.2.6.c.2.2.2.6.2.2.2.<.2.2.>.<.G O       O t ;.2.6.c.v.6.>.q.*._ 5 i.%X).T.).",
">XoX^..X(.'.`.| 3 #.:.,.z.2.2.2.>.+.:   .     @ u -.>.>.>.2.c.c.6.,.2.c.z.z.2.>.>.u X   X X   * ;.>.>.>.>.>.2.e.` ] 4 C l.l.h.%X",
"qX].^..X^.^.C.c n :.2.<.z.2.<.>.>.-.8 . .     @ u >.6.6.6.<.6.5.v.<.2.z.2.>.2.6.>.j o     . o 8 ;.;.>.>.<.;.>.,.:.*.d M C.#X/./.",
"qX/.].]./.`.i.% f J +.! ! ! I ;.>.>.p = X   o 8 +.>.;.;.6.5.5.5.6.6.6.z.z.2.2.6.>.L * X   X = K 4.>.>.;.R R L H K ) b v j._.#X/.",
"eX>XC.h.j.o.M # < , r e e y p L >.>.-.D ; * r L -.>.>.6.6.;.R 5.5.;.R ! z.c.2.c.,.;.G e * 8 p -.;.+.K p y y u u t , $ # Z a.C.C.",
">Xj.o.C 5 z 4 $ g ) -.,.,.,.-.;.>.>.2.2.! L -.>.2.2.6.>.;.E m.iXjXiXN.,.2.2.<.2.;.b.>.-.L -.;.>.>.2.2.;.,.;.-.-.L ) ( $ & & M o.",
"A.4 z C C.k.m q #.0.>.,.,.<.,.-.>.>.<.2.c.c.2.>.,.2.2.>.4.;.m.rXjXrXn.-.>.2.2.2.2.2.2.>.>.2.2.2.;.>.>.-.R ! ;.6.:.:.( d { C.a.% ",
"A.C ^.=X`.C.m q k K H D D G ! 2.2.>.2.2.2.2.2.2.6.2.>.>.4.;.3.m.5Xm.L ! 6.2.2.c.<.<.>.>.2.2.2.2.>.>.@.K H H H H H J ( b m V.-XZ.",
"-XC.`.].h.| # # , , e G I L L ,.>.2.z.2.<.<.2.2.2.;.>.4.6.7.&.Y a W <.c.c.2.2.>.c.z.2.2.2.2.2.2.<.2.>.;.R D a r 8 9 9 > 4 i.@X-X",
"qX/.g...M M + s ' ,.2.6.<.! I 1.,.2.z.c.z.2.2.2.>.>.6.6.;.3.8.3.U W ;.5.<.<.6.2.<.<.2.2.z.z.2.2.x.<.-.R ~ <.5.>.>.+.h > > v { i.",
">Xj.x M i.} > ` :.:.-.L G y u P <.2.z.z.z.z.2.2.>.;.-.>.6.3.E W l U E 5.5.~ ;.<.<.<.2.2.z.z.z.2.v.,.H y ; a H +.;.:.9.n q } } c ",
"k.5 o.C.C.k.3 g :.L i * e P -.,.c.z.z.2.z.2.>.>.;.-.G p a a Q K.7Xt.W Y H a p L z.2.2.z.z.z.z.z.<.6.6.<.R D e * t #.) 0 | `.k.i.",
"k.o.^.].`.A.` > 1 = i ,.b.>.-.2.z.z.z.2.2.>.>.2.6.>.H H Y E I.fXsXsX5XU ; E 6.2.<.<.>.2.2.2.z.z.c.2.<.<.c.6.-.K 8 = < v | C.*XA.",
">X/.].).^.i.n + s ' :.-.-.2.b.6.2.2.z.2.2.>.>.2.>.>.>.5.3.3.7XfXxXsX5Xv.;.6.<.2.6.2.2.2.2.2.z.z.2.c.b.6.<.,.;.>.' h > $ { Z./._.",
"0X#X^.j.p.M | b s #.#.e.e.2.<.>.2.2.2.2.2.2.2.2.>.6.6.;.E E K.fXxXpXK.3.5.<.<.6.<.2.z.z.2.2.2.c.x.2.2.c.2.>.q.0.9.] v % C C a.>X",
"uX^.p.C o.j.>Xs.0 N #.>.-.>.2.2.2.2.2.2.2.2.2.2.6.>.;.b.v.E 7.6XpX5X7.;.v.c.,.! 2.z.z.z.z.z.2.6.2.2.z.2.<.-.:.0.] n 4 g.g.C z a.",
"eX].p.A ).:X=XZ.| q N #.q.q.>.2.2.2.2.2.2.2.2.>.;.6.6.;.;.3.3.8.3.~ ~ ;.;.,.6.n.z.2.2.2.2.2.2.2.<.z.z.2.2.2.:.9.n 2 ..C.oX].o.o.",
">X).(.R.:X(.^.#XV.{ q 3 ] q.:.,.2.2.2.<.<.2.2.2.>.2.6.;.;.5.5.3.6.3.;.6.v.c.2.2.2.2.2.2.2.2.2.2.2.z.,.,.,.:.9.( 4 x ^.].].~.'.oX",
"eX^.(.Y.}. X.X)._.C.} 2 s J :.:.c.2.2.<.<.>.2.2.>.;.>.c.6.5.5.6.5.5.6.6.<.2.2.>.>.2.2.2.2.2.2.2.2.2.1.1.1.:._ n x C.'.'.'.(.].'.",
"0X.X.XY.[.Y.~. X'.oXC.d.n 1 F P ,.<.2.2.c.c.2.2.<.2.6.>.<.6.6.,.2.6.6.2.2.c.c.2.>.2.2.2.2.<.2.2.>.<.z.z.2.' d ..o.oX(. X}.(.'.'.",
"9X].(.[.[.[.[.}.'.^.`.;X| 1 i u G G L ! <.>.2.2.z.2.2.6.6.6.6.>.,.5.c.z.2.>.2.2.c.2.2.c.c.c.2.2.<.-.I P S h | s.].'..X[.[. X.X].",
">X+X(.[.[.[.}.[.(.+X].V.n F ' P S u u y D H ! -.-.<.2.2.2.>.>.6.5.5.2.z.z.2.<.2.2.<.<.<.<.2.<.-.-.! u S , s L.OX].'.(.[.[.~.'.].",
">X].'.[.[.[.[. X X(.].V.s ( 2.<.2.,.R G u e ; - r L <.<.>.2.2.2.z.z.2.2.2.2.2.2.2.2.6.6.>.R D y e y S L J g s./.'..X}.[.[.[..X).",
"=X].(.(.}. X X(.(.'._.=.3 ' 2.2.<.<.2.>.<.<.<.<.-.,.<.<.2.>.>.2.z.z.z.z.2.2.2.2.>.2.2.6.e.6.>.,.<.b.2.1.q.n { `.'.(.!.[.[.!.(..X",
">X].'. X!.(.'.~.^.h.} 0 < #.6.>.6.<.>.c.6.6.6.2.2.2.<.2.c.2.<.2.z.z.2.z.z.z.z.2.2.>.<.>.>.>.<.>.2.z.2.1.1.( v s.'.'.(.[.[.}.'.].",
">X].^.(.(.'._.h.a.v # + ) :.;.;.2.;.;.<.<.>.>.<.<.2.2.2.2.c.2.2.z.z.2.z.z.z.2.2.c.6.6.2.2.2.2.2.c.<.z.z.-.9./ _ C.].(.!.[.}..X'.",
"qX=X^.].].^.g.M 2 0 h + K K -.R H H R ! -.<.2.>.<.c.c.2.2.2.2.2.z.z.2.2.z.z.z.z.<.<.>.>.>.>.2.2.2.z.<.2.,.q.( d a.=X).(.}.Y.'.].",
"eX_.`.=X`.g.M 3 ` J h @ j 8 r r y r e * - u -.b.6.6.>.2.2.>.>.6.2.2.2.2.2.2.2.2.2.2.2.2.2.2.2.>.2.2.2.b.2.2. ./ { `.].(.}.Y.(.'.",
"eX=XoXC.g.M # d 7 i 8 * j K -.;.-.;.! L G u u P <.>.2.2.6.2.>.2.2.2.2.2.2.2.2.2.2.2.2.>.>.2.2.2.2.<.2.z.2.-.:.[ v g.].).(.}.(.(.",
"qX=XC.D.v 2 _ s h K L 2.>.e.>.>.>.2.2.c.2.P y p -.2.6.<.>.6.6.2.2.2.2.2.2.2.2.2.z.2.2.2.2.2.2.2.>.2.c.<.b.>.:. .6 | ]..X}.}.(.(.",
"wX*XV./ 2 ] w.[ -.,.2.z.2.<.2.6.2.>.<.>.2.<.L G P ,.2.2.2.2.z.2.>.2.z.z.z.z.z.2.2.2.2.2.2.2.2.2.z.z.z.c.c.z.2.:.n 6 `..X X(.!. X",
"qXS.| 6 _ w.' q.2.2.c.c.2.<.2.<.2.2.2.c.c.c.<.L P -.<.2.2.2.z.2.2.2.2.z.z.z.z.2.z.z.z.z.z.z.z.z.x.2.2.5.c.2.>.:._ 4 g.:X].(..X(.",
"wXB.3 / w.] :.,.<.<.z.z.z.z.c.c.<.2.2.2.>.>.;.R G -.<.>.2.2.2.<.2.2.2.z.z.z.z.z.z.z.z.z.z.z.z.z.z.z.6.6.v.6.2.q.] d { ,X:X(..X^.",
"wX' h #.9.,.b.b.2.2.z.z.z.c.c.c.z.z.c.2.<.2.>.+.P -.<.2.2.2.c.2.2.z.z.z.z.z.z.z.z.2.2.2.z.z.2.z.c.2.>.5.5.6.>.:.] n v #X>X^.'.].",
"H., +.0.:.b.,.>.2.2.2.2.z.z.2.2.2.2.2.>.>.2.>.L G ,.>.>.>.>.2.2.>.2.z.z.z.2.2.z.z.z.2.2.2.2.z.z.2.>.>.4.5.5.>.:.] _ 4 g.=X].^.:X",
"H.* +.>.+.>.>.>.>.>.2.2.2.2.>.>.>.2.>.>.2.>.+.G H ;.>.>.>.>.>.>.>.>.2.2.2.2.>.>.2.2.>.>.2.>.2.2.6.2.4.4.6.6.4.2.*._ q s.`.=X`.=X",
"F.8 >.r.>.>.2.q.>.>.>.>.2.>.>.>.2.6.2.>.4.>.K j K ;.>.>.>.>.>.>.>.>.>.>.>.>.>.>.>.>.>.>.>.>.>.>.>.>.>.>.;.;.>.>.:.) f d.Z.=X`.A.",
"tXe.G.G.H.G.G.H.J.J.J.H.H.H.H.H.G.H.F.F.J.F.b.e.n.H.H.H.J.J.J.H.H.H.H.J.J.J.J.H.J.J.J.J.J.J.J.J.H.H.H.H.J.J.J.H.G.B.0.A.1XqXqXqX"
};
