/* XPM */
static char *_f142c04fb1a4917c41f8f50fa8c9b30GDO2Y9V7a6O191Bn[] = {
/* columns rows colors chars-per-pixel */
"64 64 256 2 ",
"   c #164B03",
".  c #1C5303",
"X  c #195704",
"o  c #114E05",
"O  c #274D04",
"+  c #275805",
"@  c #335B08",
"#  c #275915",
"$  c #375718",
"%  c #304F14",
"&  c #1C6100",
"*  c #236402",
"=  c #2D6403",
"-  c #286906",
";  c #366807",
":  c #2C7302",
">  c #2C7802",
",  c #347B03",
"<  c #387608",
"1  c #286618",
"2  c #396614",
"3  c #2D7311",
"4  c #387817",
"5  c #3C5939",
"6  c #3B522E",
"7  c #3A7B26",
"8  c #3A633E",
"9  c #3B7A36",
"0  c #306825",
"q  c #455A1A",
"w  c #505C13",
"e  c #456607",
"r  c #457A09",
"t  c #426818",
"y  c #576518",
"u  c #467A15",
"i  c #56700F",
"p  c #47492B",
"a  c #534B2B",
"s  c #585629",
"d  c #474D33",
"f  c #435134",
"g  c #45583A",
"h  c #575737",
"j  c #50522F",
"k  c #64562B",
"l  c #685938",
"z  c #765C3A",
"x  c #6C532D",
"c  c #466825",
"v  c #467826",
"b  c #59673A",
"n  c #4F7435",
"m  c #686234",
"M  c #65743D",
"N  c #637C1E",
"B  c #3F5E46",
"V  c #3C6945",
"C  c #3D724A",
"Z  c #3E7A52",
"A  c #455C44",
"S  c #585B40",
"D  c #685D42",
"F  c #755D41",
"G  c #456749",
"H  c #596846",
"J  c #42744D",
"K  c #46774D",
"L  c #496B52",
"P  c #526B57",
"I  c #447B53",
"U  c #477756",
"Y  c #567957",
"T  c #5A764A",
"R  c #686647",
"E  c #776747",
"W  c #697857",
"Q  c #727350",
"!  c #587963",
"~  c #607D6B",
"^  c #88613B",
"/  c #875D33",
"(  c #856845",
")  c #946C46",
"_  c #85724C",
"`  c #977753",
"'  c #8F7551",
"]  c #A07950",
"[  c #3D8502",
"{  c #378709",
"}  c #3D920A",
"|  c #3B8519",
" . c #368B10",
".. c #3A8624",
"X. c #3B8536",
"o. c #3F9220",
"O. c #45830C",
"+. c #448C0B",
"@. c #488808",
"#. c #449203",
"$. c #4B9B02",
"%. c #4C9B0B",
"&. c #499508",
"*. c #549A09",
"=. c #488816",
"-. c #558914",
";. c #4A9616",
":. c #539B14",
">. c #579918",
",. c #55850E",
"<. c #669B16",
"1. c #678A16",
"2. c #4CA304",
"3. c #55A40C",
"4. c #5BAC0B",
"5. c #56A706",
"6. c #5BB502",
"7. c #5CB30C",
"8. c #5AB704",
"9. c #54A313",
"0. c #59A312",
"q. c #5CAC13",
"w. c #5CA21C",
"e. c #56A719",
"r. c #5DB714",
"t. c #4FA318",
"y. c #62AD06",
"u. c #62B30C",
"i. c #63BC0C",
"p. c #6CBB0D",
"a. c #66BA05",
"s. c #64AB15",
"d. c #66A918",
"f. c #64B313",
"g. c #65BB13",
"h. c #6BBC13",
"j. c #6CBC1B",
"k. c #68B519",
"l. c #74BC1C",
"z. c #73B918",
"x. c #70BB06",
"c. c #458A28",
"v. c #578A2A",
"b. c #4B9627",
"n. c #559827",
"m. c #478937",
"M. c #55893C",
"N. c #4C943B",
"B. c #4D9636",
"V. c #569739",
"C. c #639B26",
"Z. c #6A9C32",
"A. c #5BA726",
"S. c #5AA435",
"D. c #4DA128",
"F. c #65A725",
"G. c #6BB424",
"H. c #69B626",
"J. c #76B925",
"K. c #67A639",
"L. c #6AB537",
"P. c #78B42F",
"I. c #6CC40C",
"U. c #6BC605",
"Y. c #72C40C",
"T. c #74CD0C",
"R. c #77CA08",
"E. c #7CD50B",
"W. c #7CDB0C",
"Q. c #79D606",
"!. c #6DC314",
"~. c #69C415",
"^. c #74CB13",
"/. c #73C41C",
"(. c #7BCC1B",
"). c #76C716",
"_. c #7BD413",
"`. c #7DDA14",
"'. c #7CD51C",
"]. c #78D518",
"[. c #6FD200",
"{. c #75C323",
"}. c #78C825",
"|. c #7DD424",
" X c #72C42D",
".X c #3F8244",
"XX c #4C8B4C",
"oX c #498A44",
"OX c #558C4A",
"+X c #4C9243",
"@X c #4D924B",
"#X c #4D9941",
"$X c #529343",
"%X c #54934C",
"&X c #589948",
"*X c #4A845B",
"=X c #4D8D5D",
"-X c #498757",
";X c #52845C",
":X c #528D5D",
">X c #588A56",
",X c #4E9254",
"<X c #4E925D",
"1X c #529355",
"2X c #53935C",
"3X c #5A9756",
"4X c #678B55",
"5X c #5DA348",
"6X c #5BA157",
"7X c #65A650",
"8X c #4D8D62",
"9X c #4C8964",
"0X c #538563",
"qX c #538D64",
"wX c #5A8C65",
"eX c #5D856B",
"rX c #558D6A",
"tX c #5B8B6B",
"yX c #578668",
"uX c #4D9263",
"iX c #4C9268",
"pX c #539264",
"aX c #589364",
"sX c #549269",
"dX c #59926A",
"fX c #5C9D6B",
"gX c #599B64",
"hX c #5D8A72",
"jX c #618A6D",
"kX c #628567",
"lX c #639769",
"zX c #658B73",
"xX c #6A9375",
"cX c #6C947B",
"vX c #699676",
"bX c #71997B",
"nX c #5EA16A",
"mX c #61A36A",
"MX c #6BA371",
"NX c #83DC0A",
"BX c #82DD14",
"VX c #83DB1C",
"CX c #84D617",
"ZX c #81CC1C",
"AX c #88E309",
"SX c #89E317",
"DX c #93EA16",
"FX c #93EA0C",
"GX c #84DA25",
"HX c #83CB2A",
"JX c #8AE424",
"KX c #91E729",
"LX c #A28158",
"PX c #A58B65",
"IX c #749581",
"UX c #85978B",
/* pixels */
"zX! yXtXtXtXjXjXtXtXwXtXtXtXtXwXtXyXlXwX>X3X3X3X3X>X>XkXwX>X>X3X&X5XK.5X5XK.K.Z.Z.V.V.M.M.3X>X>XwXtXtXtXtXhXhXwXtXzXxXtXtXtXtXjX",
"zX! qX0X0X0XqX0XqXqX0X0X0XyXqXwXqX:X3X3XOX&X&X&X%X%XOX>XOXOX$X&XV.F.G.P.P.G.G.F.F.C.V.V.V.&X%X3X>XqXqXqX0X0XyX:XtXdXdXqX0XqX0X0X",
"xXtXdXqXsXsXsXpXqXsXsXsXqXrXrX:X2X2X%X&X&X5X5X5X&X3X&X%X&X&XV.5XL.H.{.}.{./.}.{.k.s.F.F.S.S.V.$X&X3XaX3X2XsXdXlXfXlXMXgXsXdXsXqX",
"jXqXsX=XuXuX<X<X<X<X2X,X<X2X2X1X%X&XN.S.K.L.L.S.S.S.V.B.V.B.S.K. X}.'.'.^.^.VXGX^.!./.{.G.H.A.n.&X%X1X1X1X=XpXmXnXfXfXaX8XsXsX0X",
"xXwXpX<XpX2X,X,XX.X.N.#X#X#XN.B.n.A.e.q.k.j.}.}.k.q.9.9.t.t.q.H./.'.`.`.'.`.SXJXKXSXVXVX'.GX}. X5X#X@X@X@X@X1XmXmXfXgXaX8XsXrXrX",
"bXwX:X,X2X1X@X+XX...| o.o.b.b.D.t.e.k.!.p.6.i.].I.6.5.q.q.4.4.f.T.W.Q.Q.W.W.W.Q.DXNXNXBXNXBXCX(.L.S.B.B.N.+X@X6XnX2X2XpX8XiXrXrX",
"bXwX:X,X3X3X+Xm... . .} } ;.t.t.%.q.{.|.|.].^.].I.a.g.{.{.f.7.u.T.Q.Q.W.W.W.AXSXAXNXAXFXFXDXBX'.}.H.S.n.n.V.N.5X6X@X1X2XuXsXrXrX",
"xXwX:X,X3X6X+X..|  .} ;.t.r.H.k.7.7.~.I.^.`.W.Q.E.T.].GXGXI.a.U.T.E.W.`.U.U.Q.AXAXQ.AXDXDXDXBX'.GX XL.A.n.n.B.V.&X+X1X2X<XsXsXqX",
"xXwXaX2XmXmXm.|  .{ } 4.g.~./.!.g.!.^._.T._.E.Q.VXSX_.].`.U.a.a.U.Q.[.[.[.[.W.AXNXAXFXFXAXAXDXSXKX}.k.q.q.F.F.n.n.B.$X3X2X2XrXqX",
"cXtXfXfXnX6XN... .{ 2.7.7.i.~.!./.|./.|.GXJXE.W.BXBXE.E.E.U.U.T.E.`.BXSX`.W.SXSXFXAXAXFXFXSXSXSXJX(.h.h.l. XP.A.n.b.B.$XXX:XqXrX",
"cXtXmXnXgX3XN.o. .} 3.7.i.~.!.I.!.g.2.f.(._._.JXE.E.BXBXE.BXSXBXBXSXSXJX`.U.U.R.E.SXBXSXDXSXSXBXVX_.T.).(.HX}.G.>.;.b.N.%X1X:XrX",
"cXtXfXfX2X1XB.o. .} 2.7.i.~.!.!.5.} [ q.|.GXGXGXT.T.SXSXQ.W.SXSXBXW._.T.T.I.i.'.CXCXCXCXCXCXE.BXNXE.E.R.R.(.(.{.d.>.b.V.%X1X:XwX",
"cXtXsX2X1X%XB.b.} } 2.7.7.7.6.5.$.#.+.A.H.h.GXGX/.6.a.U.U.E._.`.BXVX`.^.^./.f.2.k.{.l.(.ZXCXGXT.R.R.R.U.U.).(./.G.>.=.m.%X2XwXtX",
"cXwX2X,X,X&XB.b.;.&.2.g./.g.5.$.#.[ , { +.$.4.u.2.5.6.6.6.U.^.].'.VX`.].!.$.[ A.:.@.:.F.z.z.y.y.a.Y.).T.T.ZXHX{.k.:.=.m.%X:XrXtX",
"xXwX2X,X@XN.b.b.;.%.5.g.{.!.5.$.#.[ > * > [ 3./.!.GX^.6.6.8.6.2.8.^.U.8.7.$., , - * + ; r @.*.*.$.y.!.).Y.!.z.f.0.&.=.m.%X2XrXqX",
"zXqX2X,XoXc.c.o.%.9.f.~././.{.{.w.[ > : : > 9.|.VXKX^.a.I.~.5.$.6.I.|.GX}.H.n.& . . . @ < r @.*.4.k.(.|.(.(.l.s.%.@.=.c.+X1XaXtX",
"zXqX2X,Xm...| ;.%.9.g.}././.}.j.;.> X & =.G.}.KXKXKXSXSXJX'.~.~.i.8.I.].|.{.:.: . . + + + O 4 n.>.0.q.f.k.j.f.$.&.+.=.c.+X1XaXyX",
"xXqX2X2X@Xm.| o.e.H.f.g.!.g.7.4.9.+., , 9.l.(.GXBXNXE.NX_.I.i.7.2.8.^.JXGXf.9.P.=.= + @ @ O 2 u @.#.$.3.5.4.q.3.%.:.;.c.+X1XqXqX",
"vXqX2X2X@Xm.|  .A. X{.g.u.4.4.5.3.&.[ &.4.a.T.VXNXDXAXQ.W.VX^.6.6.I.^.T.^.(.{. XP.v.; O O @ t v < { &.%.%.%.9.0.e.e.=.c.N.1X:XtX",
"cXrX8X<X,Xm.4 > > 9.q.5.2.$.5.$.$.$.3.{.}.!.^.T.NXAXNX[.Q.T.8.2.8.].].U.T.Y.p.l.HXF.; + + O   + : , +.&.%.3.9.0.9.;.=.c.m.&X3X:X",
"cXtXuX<X,XoX7 3 b.L.H.3.$.$.4.q.5.4.u.!.'.'.'.T.Q.Q.AXAXBXVX].~.8.8.8.U._.I.y.y.s.G.F.u + . + = < O.#.%.*.*.*.*.&.@.O.< 4 M.3X>X",
"cXtXuX<X<XoXX...| =.&.#.#.3.k.f.a.Y.U.Y.'.VX_.`.Q.[.Q.BXVX^.8.8.r.~.~.~.U.p.!.u.k.s.%.: * * < ;.:.&.%.q.d.d.0.*.*.;.O.u 4 v OXlX",
"cXtX8X<X<X,Xm.m.| > [ } #.5.f.u.I.I.Y.T.^.!.Y.'.^.VXCXY.^./.5.2.7.~.~.8.i.h./.}.G. XA., > , +.F.k.d.k.j.k.d.s.*.&.@.O.u 4 v OXlX",
"cXwXuXuXpX2X+Xm.c.=.;.9.f.k.g.!.).p.).).h.j.h.h.p.).).h.u.5.2.3.7.7.i.g.u.u.k.j.d.d.A.[ [ [ *.J.J.{.{.j.k.G.J.s.;.@.=.< - M.MXMX",
"cXrX8XqXaX2X@X$Xc.| } &.3.4.u.h.p.u.h.!.u.j.J.k.J.d.s.G.d.&.[ 9.k.g.g.4.f.G.w.@.4 : [ 3.$.s.}.z.p.z.z.4.5.k.G.w.+.: - - 1 m.lXlX",
"cXrX8X8XsX2X@X%XV.b.;.:.0.4.u.!.f.f.u.5.$.%.:.>.F.>.r ,.-.O.< , 3.H.H.q.J.P.;., > : #.G.J.{.HX}.h.h.p.5.$.0.w.:.=.< 4 m.%X3X>XlX",
"cXrXuX8XqX<X,X%X&Xc.=.&.%.0.4.4.j.f.s.:., : - + . + @ ; + + = < [ %.H.P.L.=.: < , +.d.}./.p.p.p.ZX(.).f.5.9.F.A.n.b.c.m.OXXX;XlX",
"cXrXuXsXqX8X<X3X&X7 4  .+.t.G.d.F.>.>.=.: - 1 . 2 + + @ @ ; + ; [ O.w.>., : < * : :.J.}.(.).T.T.R.).).y.#.+.=.b.V.V.$X+XXX;X:X;X",
"cXqXuXsXrXqX2X3X6X$Xc.| { =.>.>.+., : * * * .   % $ O O 2 ; ; ; r [ [ O.O.; = < @.d.z.p.p.Y.R.R.CX).p.h.G.>.;.b.&XN.+X%X1X2XaX:X",
"bXrXuXsXqX=X,X3XmX&X7 - - * * : - * - X o o     % 0 $ O $ 2 t u r O.;.>.-.,.r r -.d.J.l.(.Y.x.U.x.y.y.k.P.n.| c.N.+X@X1X2X:X:X*X",
"bXdXuX2X:X2X,XXXm.m.4 4 4 3 & X X o o o o . # # $ 0 n c c 2 @ ; r O.@.O.,.,.r r ,.<.G.l.l.h.p.).z.u.3.*.O.< 7 $X+X3X3X2X,X=X:X0X",
"xXqX<X=X:XaX1X+Xm.c...| 4 3 * X - 4 b.4 * * 7 M.n c $ $ t @ ; r < O.-.O.r u u ,.,.C.J.s.y.p.p.p.J.s.d.d.n.v.V.$X@X1XfXfXaXqXdXdX",
"zX;XpXaX2X2X1Xm.7 7 | | =.=.c.b.b.A.F.;.- + 4 n M.n $ % $ + ; u ; < ,.-.,.,.u r < r >.w.G.k.s.s.G.<.-.O.; - 9 +X2X2XmXlX2X:XaXdX",
"zX;XsXaX2XXXm.0 4 | | =.=.< : | n.>.w.>.=.=.u 2 t n n $ O @ ; ; = < r r r r ; @ = = ; C.d.:.J.k.>.<.n.=.4 4 oX6XgXgXmXnXpXqXsXrX",
"zX0X0X=X=XoX9 1 3 4 | | =., , ;.>.:.d.F.w.:.O.= 2 2 c c $ v u ; ; u =.r u u e e ; u v.C.=.-.F.-.-.O.; = v M.OXXXmXgXfXfXpXqXrXrX",
"cXyXsXpXaX1XoX7 1 3 4 4 < - - < @.>.s.*.&.:.F.C.v.2 n n $ q t 2 = ; ; ; r u i -.-.C.K.-.n.=.: < < 3 = + 1 n XX3XfXgXgXaXpXpXrXqX",
"xXqXsXpX2X:XXXX.1 # X X X + 2 4 =.@.*.:.w.*.;.n.2 O q b s q s q q @ ; r -.F.d.d.*.*.>.F.n.n.c.....3 1 # 0 9 XX,XaX2X<XuXqXqXrXrX",
"bXwXsXpXaXaX2X1XXX9 0 0 0 1 . + = r @.;.>.>.>.n.n t $ j s s s s w e r ,.<.J.J.z.l.J.d.>.n.B.N.+XX.1 1 1 9 oX<X<X2XuX8X8XqXqXqXrX",
"bX0X:X=X2XgXlX2X2XXXoXXXOX9 # . 2 < -.>.>.+.=.v.v.c b R l s s s w i 1.<.d.z.l.l.z.s.d.F.S.5X&X%XoX9 9 .X.X,X2X<X<XuXuXuXuXqXqXrX",
"bX0XqXpXaXfXlX1X,XXX1X3X1XoX7 1 @ ; r O.O.O.=.u v c T Q R k k s y N Z.P.J.J.J.J.J.J.P.L.V.V.+X+X@XXX1X1X1X3X2X=X<XuXuXsXuXqXqXrX",
"bXwXpXfXfXmXmX<X1XgX2XXXXX1XoX0 . + 2 4 4 =.m.m.4XT b R Q D s k y i 1.<.<.d.s.p.s.d.>.=.c.N.3X,X,X,X1X2X2X<X<X<X<XuXuXuXuXpXrXrX",
"vXqXsXfXfXfXfX<X<X<X1X,X1X1XXX9 0 7 v c.c.m.&X&X4X4XT R D l l l y i 1.1.<.d.d.k.G.G.L.K.V.$X1X,X2X2X2X<X<X<X<XuX<XuX8XuXuXpXrXrX",
"zXqXpXgXgXaXaX<X<X=X<X2X2X2X,X1X1X3X3X%X%X%X1X3X4X4X4XW R D l k y y i i -.-.-.:.>.>.n.B.m.+X1X2X2X2X2X<X<XuXuXuX<XuXuXuXuXpXrXrX",
"vXwX:XaXpXsXpXpX<XuXuXuXuX<X2XpX=X<X,XXX,X,X2X2X>XkXkXW R D l k y w e e e ; ; < c.c.V.&X%X1X2X2X<XuXpXpXpXuXuXuXuXuXuXuXuXpXrXrX",
"bXtXqXpXuXuXuXuXuXuXuXuXuXuXuXuXuXpXuX=X<X<X=X:XwXkXkXW R D l l m k y y v v v m.N.N.$X%X@X,X2X=X8XuXuXuXuXuXuXuXuXuXuXuXuXpXrXrX",
"bXtXqXpXsXuXuXuXuXuXuXuXuXuXuXuXuXuXuXuXpXpX:XqXqXwXkXW Q R l z z m m M 4X4XOXOX%X%X1X1X2XaXpXuXuXuXuXuXuXuXuXuXuXuXuXuXuXpXrXrX",
"vXwXqXpXuXuXiXuXuXuXuXuXuXuXuXuXuXuXuXiXuXuXuXqXrXqX>XW R R E E z E R Q 4X4X4X>X1X2X2X2X2XpXuXuXiXiXuXuXuXuXuXuXuXuXuXuXuXpXrXrX",
"vXtXqXsX8X8XsXuXuXuXuXuXuXuXuXuXuXuXuXiXiXiXsXqX9X0XwXW R R E E F E R R W 4X>X>X;X:X:X2XpX<XuXuX8XiXiXuXuXuXuXuXuXuXuXuXuXpXrXrX",
"xXtXsXuXuXsXuXuXuXuXuXuXuXuXuXuXuXuXuXuXrXrXqX9X*X;XY T b R _ z z ( E E Q T Y ;X;X*X=X8X8X8XuX<XiXuXuXuXuXuXuXuX<X<XuXpXpXqXrXwX",
"zXwXsXuXuXuXuXuXuXuXuXuXuXuXuXuXuXuXuX8X9X9X*X*XK K K H b Q _ z E ( E E Q H T Y *X-X*X=X8X8XuXuXuXuXuXuXuXuXuXuX<X<XpXsXsXsXrXwX",
"zXyXsXuX8XqX8XuXuXuXuXuXuXuXuXuXuXuX8X8X9X*XI I C 8 g g b Q _ ( ^ ( E E R H H G J I -X-X*X8XuXuXuXuXuXuXuXuXuXuX<X<XpXqXqXsXrXqX",
"vXyXqXuXuXqX8XuXuXuXuXuXuXuXuXuX8X8X=X=X*XI J C 8 6 f j m _ ' ) ) ` ( E R H g 5 V J Z Z -X*X*XuXuXuXuXuXuXuXuXuX<XuXpX8X8XsXqXqX",
"cXtXqXuXsXsX8XuXuXuXuXuXuXuXuXuXqX=X=X-XI J V V 5 6 j s z ` ] ) ) ) ( ( E h j g G J V C I -X*X8XuXuXuXuXuXuXuXuXuXpXpXuXuXsXsXrX",
"IXtX8XuXsXsX8XuXuXuXuXuXuXuXuX8XqX=X-X-XI J V 8 g h l l ( ] ] ^ ) ) ^ ( E R h f 5 5 V V J I *X=X8X8XuXuXuXuXuXuXuX<XpXuXpXsXsXdX",
"bXrX8XuXsXsX:X<XuXuXuXuXsXuXuX8X0X9X-XI C V 8 5 h h l E ` LX) / ) ` ( z _ Q Q H g g 5 V V I *X*X9X8XuXuXuXuXuXuXuX<X=XuXuX8XqXdX",
"vXqXqXpXpXqX=XpX<X<X=XuXsXsXuX8XqX9X-XI C V 5 5 f j a _ PX` z x ) ` ( l E Q Q W W L G 8 V C I *X9X8XuXuXuXuXuX<XgXpXpXpXpX8XqXrX",
"xXwX8XuX=XpX<X<XpXgXpX=XuXuX<X8X=X-X*XJ V 8 5 g p p h _ PX_ x x ' ` F x h j S H P L G 5 8 V I *X=X8XqXsXuXuX<X<XfXfXpX<XsXsX0XrX",
"xXwXqX<XuXpX<X<XgXfXpX=X<XuX<X<X=X=X*XK V V 5 g d R Q E E l k k _ ' F a a d f f g g g V V J I *X=X8XqXuXuXuX<X<XnXfXgXaXqXqXrXrX",
"xXwXqX<X=XpX2X2XnXnXgX<X<XuX<X<XuX=X-XI J V A g A H R D h a a a D Q l a d d f 6 6 5 G G V J U ;X:X8XqXuXuXuX<X<XfXgXnXfXpXqXsX0X",
"zXqXpX<X=XaXgXgXmXmXgX<X<X<X<X<XuX8X*X-XI J G 5 f 6 p d j d p p h h d d f 6 5 A V G G J J J U ;X8XqXpXsXuXuX<XuXuXuXfXfXpXqXdXqX",
"zXwXsXpX=XdXlXnXnXfXaX<XuXuXuXuXuX8X=X*XI J G G A g g f d d f 6 f 6 6 5 g 5 5 G G J J J U I *X;XqXqXsXsXuXuXuXpXuXuXpXsXqXrXdXrX",
"xXtXrXqX0XdXvXfXdXsXqXqXqXrXsXsXqXqX9X9X*XU U L G G G A f g A A 5 5 5 B A B B G G J L U U U 0XyXrXrXrXrXrXrXsXsXqXsXqXqXqXyXyXtX",
"IXeXyXwXyXtXjXtXwXwXwXwXtXtXtXtXyXyXyXyX0X0X! Y P P P P L A A A G A A A G L L L L U U U ! 0XyXtXtXtXtXtXtXtXtXtXyXtXtXtXtXyXeXeX",
"UX~ ! tXeXkXkXtXjXeXtXjXjXjXjXeXeXeXeXyXyXyX! ! ! ! ! ! ! ! P P P G G G L L L P ! ! ! eXeXeXeXeXjXjXjXeXhXtXeXjXtXtXeXeXeXeXjXjX"
};
